<svg width="91" height="49" viewBox="0 0 91 49" fill="none" xmlns="http://www.w3.org/2000/svg">
<path fill-rule="evenodd" clip-rule="evenodd" d="M78.0242 22.7078C83.399 22.7078 87.7562 18.3507 87.7562 12.9759C87.7562 7.6011 83.399 3.24397 78.0242 3.24397C72.6494 3.24397 68.2923 7.6011 68.2923 12.9759C68.2923 18.3507 72.6494 22.7078 78.0242 22.7078ZM78.0242 25.9518C85.1906 25.9518 91.0001 20.1423 91.0001 12.9759C91.0001 5.80951 85.1906 0 78.0242 0C70.8578 0 65.0483 5.80951 65.0483 12.9759C65.0483 20.1423 70.8578 25.9518 78.0242 25.9518Z" fill="white"/>
<path fill-rule="evenodd" clip-rule="evenodd" d="M44.4899 0L29.3232 26.6259H59.6565L44.4899 0ZM44.4899 6.52966L34.8923 23.3788H54.0875L44.4899 6.52966Z" fill="white"/>
<path fill-rule="evenodd" clip-rule="evenodd" d="M3.22592 3.22382H15.1618C17.4779 3.22382 19.3555 5.10019 19.3555 7.4148C19.3555 9.72941 17.4779 11.6058 15.1618 11.6058H3.22592V3.22382ZM0 11.7963V0H15.1618C19.2596 0 22.5814 3.31972 22.5814 7.4148C22.5814 9.82029 21.4352 11.9582 19.6588 13.313C21.4352 14.6677 22.5814 16.8056 22.5814 19.2111C22.5814 23.3062 19.2596 26.6259 15.1618 26.6259H0V14.8296V11.7963ZM3.22592 15.0201H15.1618C17.4779 15.0201 19.3555 16.8965 19.3555 19.2111C19.3555 21.5257 17.4779 23.4021 15.1618 23.4021H3.22592V15.0201Z" fill="white"/>
<path d="M24.577 45.713C25.5461 45.713 26.3698 45.4537 27.1289 44.9512L26.3859 43.606C25.8691 43.9302 25.223 44.1733 24.5285 44.1733C23.0911 44.1733 22.1543 43.136 22.1543 41.726C22.1543 40.316 23.0911 39.2787 24.5285 39.2787C25.223 39.2787 25.8691 39.5218 26.3859 39.846L27.1289 38.5008C26.3698 37.9983 25.5461 37.739 24.577 37.739C22.1705 37.739 20.4746 39.3435 20.4746 41.726C20.4746 44.1085 22.1705 45.713 24.577 45.713Z" fill="white"/>
<path d="M30.0043 34.1248H28.4215V45.4699H30.0043V41.8881C30.0043 40.0242 30.828 39.3273 31.9908 39.3273C33.0568 39.3273 33.7029 39.8622 33.7029 41.1425V45.4699H35.2857V40.867C35.2857 38.598 34.0582 37.739 32.4754 37.739C31.3286 37.739 30.5211 38.2577 30.0366 39.1166H30.0043V34.1248Z" fill="white"/>
<path d="M40.2912 45.713C41.5187 45.713 42.3424 45.1781 42.8108 44.3678H42.8431V45.4699H44.4259V37.9821H42.8431V39.0842H42.8108C42.3424 38.2739 41.5187 37.739 40.2912 37.739C38.3208 37.739 36.6572 39.2301 36.6572 41.726C36.6572 44.2219 38.3208 45.713 40.2912 45.713ZM40.6304 44.1571C39.2414 44.1571 38.337 43.1522 38.337 41.726C38.337 40.2998 39.2414 39.2949 40.6304 39.2949C42.0194 39.2949 42.9239 40.2998 42.9239 41.726C42.9239 43.1522 42.0194 44.1571 40.6304 44.1571Z" fill="white"/>
<path d="M50.4227 37.739C49.2759 37.739 48.4684 38.2577 47.9838 39.1166H47.9515V37.9821H46.3687V45.4699H47.9515V41.8881C47.9515 40.0242 48.7752 39.3273 49.9381 39.3273C51.0041 39.3273 51.6501 39.8622 51.6501 41.1425V45.4699H53.2329V40.867C53.2329 38.598 52.0216 37.739 50.4227 37.739Z" fill="white"/>
<path d="M58.8542 48.9544C60.7761 48.9544 62.2943 48.4034 62.3751 45.4699V37.9821H60.7923V39.0842H60.76C60.2916 38.2739 59.4679 37.739 58.2404 37.739C56.27 37.739 54.6064 39.2301 54.6064 41.726C54.6064 44.2219 56.27 45.713 58.2404 45.713C59.4679 45.713 60.2916 45.1781 60.76 44.3678H60.7923V45.2592C60.7923 46.9123 60.2755 47.4147 58.8542 47.4147C58.1597 47.4147 57.2229 47.2851 56.2861 47.0744L55.9793 48.6141C56.8999 48.7923 57.9659 48.9544 58.8542 48.9544ZM58.5796 44.1571C57.1906 44.1571 56.2861 43.1522 56.2861 41.726C56.2861 40.2998 57.1906 39.2949 58.5796 39.2949C59.9686 39.2949 60.873 40.2998 60.873 41.726C60.873 43.1522 59.9686 44.1571 58.5796 44.1571Z" fill="white"/>
<path d="M67.645 37.739C65.2547 37.739 63.8334 39.4732 63.8334 41.7422C63.8334 44.1085 65.3516 45.713 67.7258 45.713C69.567 45.713 70.5522 44.6919 71.1014 43.9302L69.9869 42.8767C69.6155 43.3791 68.921 44.1895 67.6935 44.1895C66.4175 44.1895 65.4969 43.3143 65.4323 41.9853H71.2144V41.726C71.2144 39.3111 69.9223 37.739 67.645 37.739ZM67.5481 39.1977C68.6787 39.1977 69.4378 39.7973 69.5024 40.8346H65.5131C65.7069 39.7487 66.4822 39.1977 67.5481 39.1977Z" fill="white"/>
</svg>
