<svg width="22" height="22" viewBox="0 0 22 22" fill="none" xmlns="http://www.w3.org/2000/svg">
<g clip-path="url(#clip0_285:1107)">
<path d="M21.758 4.97198C21.044 2.66794 18.9121 1.09801 16.5 1.09998H5.49997C3.08787 1.09806 0.955985 2.66799 0.241981 4.97198C0.0832299 5.50018 0.00171296 6.04853 0 6.6V15.4C0.00110839 18.4371 2.46289 20.8989 5.49997 20.9H16.5C19.5371 20.8989 21.9989 18.4371 22 15.4V6.6C21.9983 6.04853 21.9168 5.50018 21.758 4.97198ZM5.49997 3.30003H16.5C18.1167 3.30466 19.4935 4.47673 19.756 6.07201L10.9999 10.846L2.24398 6.07201C2.50652 4.47673 3.88324 3.30461 5.49997 3.30003ZM19.8 15.4C19.7947 17.2203 18.3204 18.6947 16.5 18.7H5.49997C3.67965 18.6946 2.20529 17.2203 2.2 15.4V8.55802L10.472 13.068C10.8019 13.2444 11.1981 13.2444 11.528 13.068L19.8 8.55802V15.4Z" fill="white"/>
</g>
<defs>
<clipPath id="clip0_285:1107">
<rect width="22" height="22" fill="white"/>
</clipPath>
</defs>
</svg>
