<svg width="62" height="62" viewBox="0 0 62 62" fill="none" xmlns="http://www.w3.org/2000/svg">
<g opacity="0.3">
<path d="M24.8248 21.7739L21.6738 40.2648H26.7133L29.8668 21.7739H24.8248Z" fill="white"/>
<path d="M17.4489 21.7949L12.5132 34.4051L11.9869 32.5011C11.0135 30.2069 8.25012 26.9121 5.00586 24.8357L9.51905 40.256L14.8514 40.2469L22.7877 21.791L17.4489 21.7949Z" fill="white"/>
<path d="M10.0737 23.118C9.78074 21.9916 8.93176 21.6559 7.878 21.6157H0.0648075L0 21.9838C6.08024 23.4588 10.1035 27.0129 11.7729 31.2863L10.0737 23.118Z" fill="white"/>
<path d="M40.0808 25.3191C41.7295 25.2931 42.9246 25.6535 43.8526 26.0268L44.3076 26.2406L44.9894 22.2329C43.9913 21.8583 42.4269 21.4565 40.4749 21.4565C35.4951 21.4565 31.9851 23.9646 31.9579 27.5588C31.9255 30.2146 34.4581 31.6974 36.3713 32.5827C38.3349 33.49 38.9934 34.0668 38.9843 34.8769C38.9687 36.1147 37.4186 36.6824 35.9708 36.6824C33.9527 36.6824 32.8807 36.4037 31.2256 35.7142L30.5762 35.4187L29.8672 39.5573C31.0467 40.0744 33.2229 40.519 35.4821 40.5423C40.7795 40.5423 44.222 38.0641 44.2583 34.2236C44.2804 32.1226 42.9363 30.5192 40.0238 29.2036C38.2611 28.3456 37.1827 27.7753 37.193 26.9094C37.193 26.1408 38.1081 25.3191 40.0808 25.3191Z" fill="white"/>
<path d="M57.9218 21.7949H54.0282C52.8189 21.7949 51.9194 22.1241 51.3879 23.3296L43.9053 40.2754H49.1975C49.1975 40.2754 50.0607 37.9968 50.2564 37.4978C50.8358 37.4978 55.9776 37.5055 56.7099 37.5055C56.8603 38.151 57.3243 40.2754 57.3243 40.2754H61.9995L57.9218 21.7949ZM51.7068 33.713C52.1216 32.6515 53.7145 28.5453 53.7145 28.5453C53.6873 28.5958 54.1254 27.4759 54.3859 26.7799L54.7255 28.3742C54.7255 28.3742 55.6912 32.7889 55.8934 33.713H51.7068Z" fill="white"/>
</g>
</svg>
