<svg width="59" height="45" viewBox="0 0 59 45" fill="none" xmlns="http://www.w3.org/2000/svg">
<g opacity="0.3" clip-path="url(#clip0_69:1320)">
<path d="M10.6933 44.9012V41.9147C10.6933 40.7724 9.98477 40.0243 8.76839 40.0243C8.16021 40.0243 7.49888 40.2215 7.04421 40.8709C6.68993 40.3258 6.18212 40.0243 5.42041 40.0243C4.91261 40.0243 4.4048 40.1751 4.00328 40.7202V40.1229H2.94043V44.9012H4.00328V42.2627C4.00328 41.416 4.45794 41.0159 5.16651 41.0159C5.87508 41.0159 6.22936 41.4624 6.22936 42.2627V44.9012H7.29221V42.2627C7.29221 41.416 7.80002 41.0159 8.45544 41.0159C9.16401 41.0159 9.51829 41.4624 9.51829 42.2627V44.9012H10.6933ZM26.4589 40.1229H24.7348V38.6789H23.6719V40.1229H22.7094V41.0681H23.6719V43.2601C23.6719 44.3561 24.1266 44.9998 25.343 44.9998C25.7976 44.9998 26.3054 44.849 26.6597 44.6518L26.3527 43.753C26.0456 43.9502 25.6913 44.0024 25.4374 44.0024C24.9296 44.0024 24.7289 43.7008 24.7289 43.2079V41.0681H26.453V40.1229H26.4589ZM35.4814 40.0185C34.8732 40.0185 34.4658 40.32 34.2118 40.7144V40.1171H33.149V44.8954H34.2118V42.2047C34.2118 41.4102 34.5661 40.9579 35.2275 40.9579C35.4282 40.9579 35.6821 41.0101 35.8888 41.0565L36.1958 40.0591C35.9833 40.0185 35.6821 40.0185 35.4814 40.0185ZM21.8474 40.5172C21.3396 40.1693 20.631 40.0185 19.8693 40.0185C18.6529 40.0185 17.844 40.6158 17.844 41.561C17.844 42.3555 18.4521 42.8078 19.515 42.9528L20.0228 43.0049C20.5778 43.1035 20.8849 43.2543 20.8849 43.5036C20.8849 43.8516 20.4775 44.1009 19.7689 44.1009C19.0603 44.1009 18.4994 43.8516 18.1451 43.6022L17.6373 44.3967C18.1923 44.7968 18.954 44.994 19.7157 44.994C21.1329 44.994 21.9477 44.3445 21.9477 43.4515C21.9477 42.6048 21.2864 42.1583 20.2767 42.0075L19.7689 41.9553C19.3142 41.9031 18.9599 41.8046 18.9599 41.5088C18.9599 41.1609 19.3142 40.9637 19.8752 40.9637C20.4834 40.9637 21.0916 41.2131 21.3986 41.3638L21.8474 40.5172ZM50.1251 40.0185C49.5169 40.0185 49.1095 40.32 48.8556 40.7144V40.1171H47.7927V44.8954H48.8556V42.2047C48.8556 41.4102 49.2098 40.9579 49.8712 40.9579C50.0719 40.9579 50.3258 41.0101 50.5325 41.0565L50.8396 40.0707C50.6329 40.0185 50.3317 40.0185 50.1251 40.0185ZM36.5442 42.512C36.5442 43.956 37.5598 44.9998 39.1305 44.9998C39.8391 44.9998 40.3469 44.849 40.8547 44.4547L40.3469 43.608C39.9394 43.9096 39.5379 44.0545 39.0773 44.0545C38.2152 44.0545 37.6071 43.4573 37.6071 42.512C37.6071 41.6132 38.2152 41.0159 39.0773 40.9695C39.532 40.9695 39.9394 41.1203 40.3469 41.416L40.8547 40.5694C40.3469 40.1693 39.8391 40.0243 39.1305 40.0243C37.5598 40.0185 36.5442 41.0681 36.5442 42.512ZM46.3756 42.512V40.1229H45.3127V40.7202C44.9584 40.2736 44.4506 40.0243 43.7893 40.0243C42.4194 40.0243 41.3566 41.0681 41.3566 42.512C41.3566 43.956 42.4194 44.9998 43.7893 44.9998C44.4979 44.9998 45.0057 44.7504 45.3127 44.3039V44.9012H46.3756V42.512ZM42.4726 42.512C42.4726 41.6654 43.0276 40.9695 43.9428 40.9695C44.8049 40.9695 45.4131 41.619 45.4131 42.512C45.4131 43.3587 44.8049 44.0545 43.9428 44.0545C43.0335 44.0024 42.4726 43.3529 42.4726 42.512ZM29.7538 40.0185C28.3366 40.0185 27.321 41.0159 27.321 42.5062C27.321 44.0024 28.3366 44.994 29.8069 44.994C30.5155 44.994 31.2241 44.7968 31.785 44.3445L31.2772 43.5964C30.8698 43.898 30.362 44.0951 29.8601 44.0951C29.1987 44.0951 28.5433 43.7936 28.3898 42.9528H31.9858C31.9858 42.802 31.9858 42.7034 31.9858 42.5526C32.033 41.0159 31.1178 40.0185 29.7538 40.0185ZM29.7538 40.9173C30.4151 40.9173 30.8698 41.3175 30.9702 42.0597H28.437C28.5374 41.416 28.9921 40.9173 29.7538 40.9173ZM56.1597 42.512V38.2324H55.0969V40.7202C54.7426 40.2736 54.2348 40.0243 53.5734 40.0243C52.2035 40.0243 51.1407 41.0681 51.1407 42.512C51.1407 43.956 52.2035 44.9998 53.5734 44.9998C54.282 44.9998 54.7898 44.7504 55.0969 44.3039V44.9012H56.1597V42.512ZM52.2567 42.512C52.2567 41.6654 52.8117 40.9695 53.727 40.9695C54.5891 40.9695 55.1972 41.619 55.1972 42.512C55.1972 43.3587 54.5891 44.0545 53.727 44.0545C52.8117 44.0024 52.2567 43.3529 52.2567 42.512ZM16.6748 42.512V40.1229H15.612V40.7202C15.2577 40.2736 14.7499 40.0243 14.0885 40.0243C12.7187 40.0243 11.6558 41.0681 11.6558 42.512C11.6558 43.956 12.7187 44.9998 14.0885 44.9998C14.7971 44.9998 15.3049 44.7504 15.612 44.3039V44.9012H16.6748V42.512ZM12.7246 42.512C12.7246 41.6654 13.2796 40.9695 14.1948 40.9695C15.0569 40.9695 15.6651 41.619 15.6651 42.512C15.6651 43.3587 15.0569 44.0545 14.1948 44.0545C13.2796 44.0024 12.7246 43.3529 12.7246 42.512Z" fill="white"/>
<path d="M37.4595 3.83301H21.4932V32.0044H37.4595V3.83301Z" fill="#131925"/>
<path d="M22.556 17.9188C22.556 12.1952 25.2958 7.11533 29.5 3.83312C26.4059 1.44394 22.5029 0 18.2456 0C8.16033 0 0 8.01417 0 17.9188C0 27.8235 8.16033 35.8376 18.2456 35.8376C22.5029 35.8376 26.4059 34.3937 29.5 32.0045C25.2899 28.7687 22.556 23.6424 22.556 17.9188Z" fill="white"/>
<path d="M59 17.9188C59 27.8235 50.8397 35.8376 40.7544 35.8376C36.4971 35.8376 32.5941 34.3937 29.5 32.0045C33.7573 28.7165 36.444 23.6424 36.444 17.9188C36.444 12.1952 33.7042 7.11533 29.5 3.83312C32.5882 1.44394 36.4912 0 40.7485 0C50.8397 0 59 8.06637 59 17.9188Z" fill="white"/>
</g>
<defs>
<clipPath id="clip0_69:1320">
<rect width="59" height="45" fill="white"/>
</clipPath>
</defs>
</svg>
