<svg width="80" height="26" viewBox="0 0 80 26" fill="none" xmlns="http://www.w3.org/2000/svg">
<g opacity="0.3">
<path d="M11.4199 24.0965C17.3046 24.0965 22.0751 19.2372 22.0751 13.2429C22.0751 7.24852 17.3046 2.38916 11.4199 2.38916C5.53517 2.38916 0.764648 7.24852 0.764648 13.2429C0.764648 19.2372 5.53517 24.0965 11.4199 24.0965Z" fill="white"/>
<path d="M12.5559 14.2445V14.2428C12.4822 14.248 12.1019 14.2707 11.2556 14.2707C10.579 14.2707 10.1045 14.2515 9.93659 14.2428V14.2445C7.33445 14.1276 5.39355 13.6669 5.39355 13.1138C5.39355 12.5624 7.33616 12.0999 9.93659 11.983V13.7856C10.1062 13.7978 10.5944 13.8275 11.2676 13.8275C12.0762 13.8275 12.4805 13.7926 12.5559 13.7856V11.9848C15.1529 12.1034 17.0886 12.5641 17.0886 13.1155C17.0886 13.6669 15.1511 14.1276 12.5559 14.2462V14.2445ZM12.5559 11.7981V10.1857H16.179V7.72705H6.31518V10.1857H9.9383V11.7981C6.99355 11.9359 4.78027 12.5292 4.78027 13.2411C4.78027 13.9531 6.99526 14.5464 9.9383 14.686V19.8546H12.5576V14.686C15.4972 14.5481 17.707 13.9548 17.707 13.2429C17.707 12.5327 15.4972 11.9377 12.5576 11.7998" fill="#131925"/>
<path d="M31.1258 8.39889V11.0059H33.6131V12.962H31.1086V16.9283C31.1086 17.8043 31.5832 18.2318 32.2787 18.2318C32.6264 18.2318 33.029 18.1201 33.3579 17.9526L33.9797 19.8895C33.3408 20.1495 32.8097 20.2612 32.133 20.2804C30.1767 20.3554 28.8971 19.2194 28.8971 16.9283V12.962H27.2148V11.0059H28.8971V8.64144L31.1258 8.39889ZM74.0089 10.8837L74.1733 11.9447C74.8688 10.8087 75.8007 10.6412 76.7155 10.6412C77.6474 10.6412 78.5433 11.0128 79.0367 11.5154L78.0311 13.489C77.5737 13.0981 77.154 12.8922 76.4226 12.8922C75.2525 12.8922 74.1733 13.5256 74.1733 15.22V20.0622H71.9429V10.8802L74.0089 10.8837ZM68.5425 14.4033C68.3969 13.2115 67.4821 12.6147 66.2024 12.6147C64.9964 12.6147 64.008 13.2115 63.6791 14.4033H68.5425ZM63.6431 16.2844C63.7887 17.4204 64.7583 18.2405 66.3309 18.2405C67.1532 18.2405 68.2324 17.9229 68.7446 17.3837L70.1699 18.8181C69.2191 19.8232 67.6654 20.3083 66.2932 20.3083C63.1857 20.3083 61.3373 18.3522 61.3373 15.4102C61.3373 12.6165 63.2029 10.6045 66.1288 10.6045C69.1455 10.6045 71.0298 12.5048 70.6821 16.2844H63.6431ZM53.8067 7.02734V12.1296C54.6119 11.0687 55.5986 10.7511 56.623 10.7511C59.1823 10.7511 60.3163 12.5205 60.3163 15.2217V20.064H58.0859V15.2409C58.0859 13.564 57.226 12.8573 56.0371 12.8573C54.7198 12.8573 53.8067 13.9932 53.8067 15.3718V20.0657H51.5763V7.02909L53.8067 7.02734ZM47.8829 8.29419V10.9012H50.3703V12.8573H47.8658V16.8236C47.8658 17.6996 48.342 18.1271 49.0358 18.1271C49.3836 18.1271 49.7861 18.0154 50.1151 17.8479L50.7369 19.7848C50.0979 20.0448 49.5669 20.1565 48.8902 20.1757C46.9339 20.2507 45.6542 19.113 45.6542 16.8236V12.8573H43.972V10.9012H45.6542V8.53674L47.8829 8.29419ZM41.7211 14.4033C41.5754 13.2115 40.6607 12.6147 39.381 12.6147C38.175 12.6147 37.1866 13.2115 36.8577 14.4033H41.7211ZM36.8217 16.2844C36.9673 17.4204 37.9369 18.2405 39.5095 18.2405C40.3318 18.2405 41.411 17.9229 41.9232 17.3837L43.3485 18.8181C42.3977 19.8232 40.844 20.3083 39.4718 20.3083C36.3626 20.3083 34.5159 18.3522 34.5159 15.4102C34.5159 12.6165 36.3814 10.6045 39.3056 10.6045C42.3223 10.6045 44.205 12.5048 43.859 16.2844H36.8217Z" fill="white"/>
</g>
</svg>
