<svg width="115" height="24" viewBox="0 0 115 24" fill="none" xmlns="http://www.w3.org/2000/svg">
<g opacity="0.3" clip-path="url(#clip0_69:1326)">
<path d="M23.6502 14.9038C22.0466 21.3324 15.5319 25.2447 9.09902 23.6416C2.66878 22.0389 -1.24573 15.5275 0.358641 9.09931C1.96151 2.67003 8.47619 -1.24266 14.9072 0.36007C21.3397 1.96279 25.2538 8.47494 23.6502 14.9038Z" fill="white"/>
<path d="M17.2973 10.2921C17.5363 8.69542 16.3199 7.83705 14.6566 7.26444L15.1962 5.10147L13.8788 4.77335L13.3535 6.87931C13.0072 6.79307 12.6515 6.7117 12.2981 6.63107L12.8271 4.51123L11.5105 4.18311L10.9706 6.34532C10.684 6.28007 10.4025 6.21558 10.1294 6.1477L10.1309 6.14095L8.31417 5.68758L7.96373 7.09381C7.96373 7.09381 8.94113 7.31768 8.9205 7.33155C9.45404 7.46468 9.55046 7.81754 9.53433 8.09729L8.91974 10.5614C8.95651 10.5708 9.00417 10.5843 9.0567 10.6053C9.0128 10.5944 8.9659 10.5824 8.9175 10.5708L8.05602 14.0226C7.99074 14.1846 7.82528 14.4276 7.45233 14.3353C7.46546 14.3544 6.49481 14.0965 6.49481 14.0965L5.84082 15.6036L7.55513 16.0307C7.87405 16.1105 8.18659 16.1942 8.49426 16.2729L7.9491 18.4606L9.26493 18.7888L9.80485 16.6243C10.1643 16.7218 10.5132 16.8118 10.8547 16.8965L10.3166 19.0509L11.634 19.379L12.1791 17.1954C14.4255 17.6203 16.1147 17.4489 16.8257 15.4183C17.3986 13.7833 16.7971 12.8402 15.6153 12.2252C16.476 12.0269 17.1243 11.461 17.2973 10.2921ZM14.2874 14.5104C13.8803 16.1454 11.1259 15.2616 10.233 15.0399L10.9564 12.1416C11.8493 12.3643 14.7129 12.8053 14.2874 14.5104ZM14.6949 10.2685C14.3234 11.7557 12.0309 11.0001 11.2873 10.8149L11.9431 8.18617C12.6868 8.37142 15.0817 8.71716 14.6949 10.2685Z" fill="#131925"/>
<path d="M35.1831 7.26225C36.1568 7.26225 36.998 7.43662 37.7049 7.77899C38.4151 8.12474 39.0012 8.59048 39.4713 9.17623C39.9351 9.76497 40.2802 10.4531 40.5031 11.2417C40.7245 12.0326 40.8356 12.8827 40.8356 13.7928C40.8356 15.1908 40.5793 16.5115 40.0619 17.7565C39.5445 19.0033 38.8425 20.0848 37.9495 21.0073C37.0572 21.9286 36.0037 22.655 34.7888 23.1916C33.5757 23.7286 32.2569 23.9971 30.8409 23.9971C30.6578 23.9971 30.3358 23.9919 29.8811 23.9825C29.4264 23.9731 28.9037 23.9262 28.3184 23.8471C27.7293 23.765 27.1065 23.6435 26.4487 23.4808C25.7914 23.321 25.167 23.0971 24.5791 22.8129L29.8365 0.734737L34.5453 0.00537109L32.6629 7.84013C33.0658 7.65863 33.4718 7.518 33.877 7.41563C34.2826 7.31475 34.7179 7.26225 35.1831 7.26225ZM31.2333 20.2637C31.9425 20.2637 32.6107 20.0893 33.2384 19.7469C33.868 19.4042 34.4113 18.9414 34.8664 18.3651C35.3216 17.7861 35.6818 17.134 35.9444 16.4054C36.207 15.6768 36.3399 14.9166 36.3399 14.1258C36.3399 13.1542 36.1774 12.3963 35.8536 11.8484C35.5298 11.3028 34.9306 11.0283 34.0605 11.0283C33.7753 11.0283 33.408 11.0827 32.9525 11.1798C32.4955 11.2829 32.0865 11.4971 31.72 11.8192L29.7156 20.1396C29.8365 20.1609 29.9434 20.1812 30.0346 20.2003C30.1239 20.2209 30.2225 20.2356 30.3208 20.2457C30.4248 20.2573 30.5437 20.2633 30.6874 20.2633C30.8311 20.2633 31.0108 20.2637 31.2333 20.2637Z" fill="white"/>
<path d="M45.7192 23.5741H41.2217L45.0199 7.60043H49.5482L45.7192 23.5741ZM47.9078 5.65421C47.2801 5.65421 46.7109 5.46747 46.2059 5.09322C45.6967 4.72123 45.4446 4.14861 45.4446 3.37687C45.4446 2.95238 45.5309 2.55413 45.702 2.17839C45.8757 1.80339 46.1027 1.48053 46.3871 1.20603C46.6711 0.933787 47.0002 0.716286 47.3739 0.552414C47.7499 0.391166 48.1498 0.310547 48.5761 0.310547C49.2034 0.310547 49.7696 0.497295 50.2765 0.871539C50.7815 1.24766 51.0355 1.82027 51.0355 2.58789C51.0355 3.01388 50.9496 3.41362 50.777 3.78862C50.6055 4.16361 50.3785 4.48647 50.0941 4.76097C49.8123 5.03359 49.4803 5.25034 49.1073 5.41271C48.731 5.57658 48.3325 5.65421 47.9078 5.65421Z" fill="white"/>
<path d="M53.4903 3.62097L58.201 2.8916L57.0442 7.60003H62.0892L61.1782 11.3042H56.1636L54.8279 16.8916C54.7048 17.3574 54.635 17.7924 54.6155 18.1966C54.5934 18.6027 54.6448 18.9515 54.7664 19.2451C54.8872 19.5395 55.1044 19.7663 55.4196 19.9268C55.7333 20.09 56.1824 20.1721 56.7714 20.1721C57.2566 20.1721 57.7293 20.126 58.1863 20.0345C58.6407 19.9445 59.1011 19.8192 59.5671 19.6553L59.9025 23.1188C59.2947 23.3415 58.6366 23.5332 57.9274 23.6944C57.2172 23.8579 56.3764 23.9367 55.4046 23.9367C54.0073 23.9367 52.9241 23.7293 52.1523 23.3164C51.3816 22.9005 50.8368 22.3324 50.5108 21.6132C50.1892 20.8966 50.0455 20.0705 50.0857 19.1397C50.1273 18.2067 50.268 17.2261 50.5108 16.1934L53.4903 3.62097Z" fill="white"/>
<path d="M61.8906 17.1953C61.8906 15.8195 62.1135 14.522 62.5589 13.3074C63.0035 12.0917 63.644 11.0286 64.475 10.1162C65.3031 9.20835 66.312 8.48911 67.4995 7.96112C68.6814 7.43613 70.0048 7.17139 71.4632 7.17139C72.3761 7.17139 73.1914 7.25764 73.9088 7.43051C74.6292 7.60488 75.2809 7.83026 75.8703 8.113L74.3193 11.6379C73.914 11.4737 73.4934 11.3289 73.0586 11.1977C72.6233 11.0638 72.092 10.9993 71.4636 10.9993C69.9624 10.9993 68.7756 11.5164 67.8924 12.5473C67.0125 13.5789 66.5694 14.9675 66.5694 16.7094C66.5694 17.7417 66.7923 18.5765 67.2395 19.2151C67.6845 19.8537 68.5066 20.1713 69.7001 20.1713C70.2892 20.1713 70.8576 20.1098 71.402 19.9898C71.9506 19.8683 72.435 19.7153 72.8616 19.5346L73.1974 23.148C72.6286 23.3685 72.0012 23.5676 71.3131 23.742C70.6235 23.9104 69.8025 23.9977 68.8507 23.9977C67.5941 23.9977 66.5304 23.814 65.6603 23.4521C64.7898 23.0846 64.0706 22.5968 63.504 21.9788C62.9344 21.3593 62.5255 20.6359 62.2726 19.8057C62.0197 18.9762 61.8906 18.1047 61.8906 17.1953Z" fill="white"/>
<path d="M81.8708 23.9977C80.7973 23.9977 79.8649 23.8342 79.074 23.5106C78.2853 23.187 77.6321 22.7329 77.1154 22.1442C76.598 21.5584 76.2108 20.8643 75.9456 20.0644C75.6803 19.2649 75.5527 18.3796 75.5527 17.4095C75.5527 16.1926 75.7482 14.9761 76.1433 13.763C76.5365 12.5473 77.12 11.4549 77.8921 10.4841C78.6583 9.51173 79.6034 8.71673 80.7163 8.09687C81.828 7.48113 83.1067 7.17139 84.543 7.17139C85.5969 7.17139 86.5244 7.33525 87.3262 7.65887C88.1243 7.98174 88.7817 8.43962 89.3013 9.02536C89.8154 9.6141 90.2059 10.3052 90.4686 11.1062C90.7331 11.9042 90.8637 12.7918 90.8637 13.7627C90.8637 14.9758 90.6708 16.1922 90.2881 17.4091C89.905 18.62 89.3366 19.7149 88.5862 20.6881C87.8373 21.6589 86.9008 22.4535 85.7759 23.0708C84.6526 23.688 83.3498 23.9977 81.8708 23.9977ZM84.1186 10.9997C83.4519 10.9997 82.8625 11.1932 82.3578 11.5753C81.8513 11.9619 81.4258 12.4479 81.0829 13.034C80.7362 13.6228 80.4792 14.2648 80.3054 14.9626C80.1332 15.662 80.0488 16.3231 80.0488 16.9512C80.0488 17.9648 80.2124 18.7542 80.5339 19.3223C80.86 19.8874 81.4457 20.1717 82.297 20.1717C82.966 20.1717 83.5525 19.9797 84.0601 19.5934C84.5636 19.2098 84.9895 18.7234 85.3351 18.1362C85.6795 17.5505 85.9387 16.9066 86.1125 16.2076C86.2824 15.5105 86.3691 14.8456 86.3691 14.2186C86.3691 13.2077 86.2063 12.4164 85.8817 11.8491C85.5575 11.2839 84.9692 10.9997 84.1186 10.9997Z" fill="white"/>
<path d="M95.764 23.5741H91.2627L95.0609 7.60043H99.5915L95.764 23.5741ZM97.9492 5.65421C97.3219 5.65421 96.7531 5.46747 96.2488 5.09322C95.7423 4.72123 95.4879 4.14861 95.4879 3.37687C95.4879 2.95238 95.5753 2.55413 95.7468 2.17839C95.9182 1.80339 96.1467 1.48053 96.4311 1.20603C96.7136 0.933787 97.0457 0.716286 97.4187 0.552414C97.7924 0.391166 98.1923 0.310547 98.617 0.310547C99.2459 0.310547 99.814 0.497295 100.32 0.871539C100.826 1.24766 101.081 1.82027 101.081 2.58789C101.081 3.01388 100.991 3.41362 100.821 3.78862C100.651 4.16361 100.422 4.48647 100.139 4.76097C99.8537 5.03359 99.5258 5.25034 99.1521 5.41271C98.7754 5.57658 98.3762 5.65421 97.9492 5.65421Z" fill="white"/>
<path d="M102.833 8.32703C103.175 8.22728 103.556 8.10729 103.97 7.97679C104.387 7.84629 104.851 7.7248 105.371 7.6153C105.884 7.50243 106.464 7.41093 107.101 7.34005C107.739 7.26768 108.465 7.23242 109.272 7.23242C111.644 7.23242 113.28 7.9228 114.182 9.2994C115.084 10.676 115.24 12.56 114.655 14.9479L112.586 23.5728H108.059L110.064 15.1294C110.186 14.6022 110.282 14.0926 110.353 13.5946C110.425 13.1011 110.421 12.6661 110.337 12.2896C110.257 11.9176 110.069 11.6131 109.777 11.3772C109.48 11.1451 109.032 11.0285 108.423 11.0285C107.837 11.0285 107.24 11.0915 106.631 11.213L103.683 23.5724H99.1543L102.833 8.32703Z" fill="white"/>
</g>
<defs>
<clipPath id="clip0_69:1326">
<rect width="115" height="24" fill="white"/>
</clipPath>
</defs>
</svg>
