<svg width="117" height="29" viewBox="0 0 117 29" fill="none" xmlns="http://www.w3.org/2000/svg">
<g opacity="0.3">
<path d="M33.2035 16.2748C33.2035 16.4713 33.0318 16.6367 32.8172 16.6367H25.7033C25.8857 18.3324 27.2055 19.8834 29.0725 19.8834C30.3493 19.8834 31.2936 19.4181 32.0018 18.4358C32.0769 18.3324 32.1842 18.2601 32.3129 18.2601C32.5168 18.2601 32.667 18.4048 32.667 18.6013C32.667 18.6736 32.6456 18.7253 32.6134 18.777C31.8945 19.9765 30.4674 20.5658 29.0725 20.5658C26.6797 20.5658 24.9629 18.4979 24.9629 16.2955C24.9629 14.0828 26.669 12.0252 29.0725 12.0252C31.4653 12.0252 33.1928 14.0725 33.2035 16.2748ZM32.4417 15.9543C32.2915 14.2586 30.9395 12.7076 29.0725 12.7076C27.2055 12.7076 25.8857 14.2586 25.7033 15.9543H32.4417ZM41.8412 12.1906C42.045 12.1906 42.1953 12.3664 42.1953 12.5318C42.1953 12.7283 42.045 12.873 41.8412 12.873H39.9312V20.1005C39.9312 20.2763 39.781 20.4417 39.5771 20.4417C39.3733 20.4417 39.223 20.266 39.223 20.1005V12.873H37.3882C37.1844 12.873 37.0341 12.7283 37.0341 12.5318C37.0341 12.3561 37.1844 12.1906 37.3882 12.1906H39.223V9.55398C39.223 9.37821 39.3625 9.21277 39.5449 9.19209C39.7703 9.17141 39.942 9.32651 39.942 9.5333V12.1906H41.8412ZM53.4939 15.6855V20.0592C53.4939 20.2556 53.3115 20.4004 53.1398 20.4004C52.936 20.4004 52.7858 20.2556 52.7858 20.0592V15.6855C52.7858 14.2069 51.9166 12.7386 50.2106 12.7386C48.0216 12.7386 47.0774 14.5791 47.2062 16.4713C47.2062 16.523 47.2276 16.7401 47.2276 16.7711V20.0488C47.2276 20.2246 47.0881 20.39 46.9057 20.4107C46.6804 20.4314 46.5087 20.2763 46.5087 20.0695V5.68691C46.5087 5.51114 46.6589 5.3457 46.8628 5.3457C47.0667 5.3457 47.2169 5.52148 47.2169 5.68691V13.814C47.8285 12.7593 48.923 12.0459 50.1998 12.0459C52.3029 12.0459 53.4939 13.814 53.4939 15.6855ZM66.2734 16.2748C66.2734 16.4713 66.1017 16.6367 65.8871 16.6367H58.7731C58.9555 18.3324 60.2753 19.8834 62.1423 19.8834C63.4192 19.8834 64.3634 19.4181 65.0716 18.4358C65.1467 18.3324 65.254 18.2601 65.3828 18.2601C65.5866 18.2601 65.7369 18.4048 65.7369 18.6013C65.7369 18.6736 65.7154 18.7253 65.6832 18.777C64.9643 19.9765 63.5372 20.5658 62.1423 20.5658C59.7495 20.5658 58.0327 18.4979 58.0327 16.2955C58.0327 14.0828 59.7388 12.0252 62.1423 12.0252C64.5244 12.0252 66.2519 14.0725 66.2734 16.2748ZM65.5008 15.9543C65.3506 14.2586 63.9986 12.7076 62.1316 12.7076C60.2753 12.7076 58.9448 14.2586 58.7624 15.9543H65.5008ZM75.0076 12.5112C75.0076 12.7283 74.8788 12.8524 74.6749 12.8834C72.5826 13.1832 71.6383 14.8273 71.6383 16.7401V20.0178C71.6383 20.1936 71.4989 20.359 71.3164 20.3797C71.0911 20.4004 70.9194 20.2453 70.9194 20.0385V12.5628C70.9194 12.3871 71.0589 12.2216 71.2413 12.201C71.4667 12.1803 71.6383 12.3354 71.6383 12.5422V14.0621C72.2285 13.1005 73.3981 12.1906 74.6213 12.1906C74.8037 12.1906 75.0076 12.3147 75.0076 12.5112ZM86.714 16.2748C86.714 16.4713 86.5423 16.6367 86.3277 16.6367H79.2137C79.3961 18.3324 80.7159 19.8834 82.5829 19.8834C83.8598 19.8834 84.804 19.4181 85.5122 18.4358C85.5873 18.3324 85.6946 18.2601 85.8234 18.2601C86.0273 18.2601 86.1775 18.4048 86.1775 18.6013C86.1775 18.6736 86.156 18.7253 86.1238 18.777C85.4049 19.9765 83.9778 20.5658 82.5829 20.5658C80.1901 20.5658 78.4733 18.4979 78.4733 16.2955C78.4733 14.0828 80.1794 12.0252 82.5829 12.0252C84.9757 12.0252 86.7033 14.0725 86.714 16.2748ZM85.9522 15.9543C85.8019 14.2586 84.45 12.7076 82.5829 12.7076C80.7159 12.7076 79.3961 14.2586 79.2137 15.9543H85.9522ZM98.2165 12.5939V20.1005C98.2165 20.297 98.0341 20.4417 97.8624 20.4417C97.6586 20.4417 97.5083 20.297 97.5083 20.1005V18.6736C96.9182 19.8007 95.8774 20.6175 94.5469 20.6175C92.4331 20.6175 91.2635 18.8494 91.2635 16.9779V12.5835C91.2635 12.4078 91.4137 12.2423 91.6176 12.2423C91.8214 12.2423 91.9717 12.4181 91.9717 12.5835V16.9779C91.9717 18.4565 92.8408 19.9248 94.5469 19.9248C96.9397 19.9248 97.5083 17.7637 97.5083 15.3753V12.5732C97.5083 12.3664 97.7337 12.1596 97.9912 12.2527C98.12 12.3147 98.2165 12.4491 98.2165 12.5939ZM116.232 15.6544V20.0488C116.232 20.2453 116.05 20.39 115.878 20.39C115.674 20.39 115.524 20.2453 115.524 20.0488V15.6544C115.524 14.1759 114.655 12.7283 112.949 12.7283C110.803 12.7283 109.987 14.941 109.987 16.6574V20.0488C109.987 20.2453 109.805 20.39 109.633 20.39C109.429 20.39 109.279 20.2453 109.279 20.0488V15.6544C109.279 14.1759 108.41 12.7283 106.704 12.7283C104.536 12.7283 103.646 14.3723 103.721 16.5643C103.721 16.616 103.742 16.7091 103.721 16.7401V20.0385C103.721 20.2143 103.582 20.3797 103.399 20.4004C103.174 20.4211 103.002 20.266 103.002 20.0592V12.5628C103.002 12.3871 103.142 12.2216 103.324 12.201C103.549 12.1803 103.721 12.3354 103.721 12.5422V13.7933C104.333 12.7386 105.427 12.0459 106.704 12.0459C108.153 12.0459 109.279 12.9351 109.741 14.2275C110.331 12.9454 111.479 12.0459 112.949 12.0459C115.041 12.0459 116.232 13.7933 116.232 15.6544Z" fill="white"/>
<path opacity="0.6" d="M8.96548 19.8536L17.9418 14.6706L8.96548 10.6909L0 14.6706L8.96548 19.8536Z" fill="white"/>
<path opacity="0.45" d="M8.58081 10.6332V0L0 14.638L8.58081 19.8537V10.6332Z" fill="white"/>
<path opacity="0.8" d="M8.58105 19.8537L17.942 14.638L8.58105 0V10.6332V19.8537Z" fill="white"/>
<path opacity="0.45" d="M8.58081 21.153L0 16.0361L8.58081 28.2541V21.153Z" fill="white"/>
<path opacity="0.8" d="M17.942 16.0361L8.58105 21.153V28.2541L17.942 16.0361Z" fill="white"/>
</g>
</svg>
