<svg width="117" height="29" fill="none" xmlns="http://www.w3.org/2000/svg"><g opacity=".3" fill="#fff"><path d="M33.203 16.275c0 .196-.171.362-.386.362h-7.114c.183 1.695 1.503 3.246 3.37 3.246 1.276 0 2.22-.465 2.929-1.447a.387.387 0 01.31-.176c.205 0 .355.145.355.341a.312.312 0 01-.054.176c-.718 1.2-2.146 1.789-3.54 1.789-2.393 0-4.11-2.068-4.11-4.27 0-2.213 1.706-4.27 4.11-4.27 2.392 0 4.12 2.046 4.13 4.249zm-.761-.32c-.15-1.696-1.503-3.247-3.37-3.247-1.866 0-3.186 1.55-3.369 3.246h6.739zm9.4-3.764c.203 0 .353.175.353.34 0 .197-.15.342-.354.342h-1.91v7.228a.35.35 0 01-.354.34.358.358 0 01-.354-.34v-7.228h-1.835c-.204 0-.354-.145-.354-.341a.35.35 0 01.354-.341h1.835V9.554c0-.176.14-.341.322-.362.225-.02.397.135.397.341v2.658h1.9zm11.652 3.494v4.374c0 .197-.182.341-.354.341-.204 0-.354-.144-.354-.34v-4.374c0-1.48-.87-2.947-2.575-2.947-2.19 0-3.134 1.84-3.005 3.732 0 .052.022.27.022.3v3.278c0 .176-.14.341-.322.362-.226.02-.397-.135-.397-.341V5.687a.35.35 0 01.354-.341c.204 0 .354.175.354.34v8.128c.611-1.055 1.706-1.768 2.983-1.768 2.103 0 3.294 1.768 3.294 3.64zm12.78.59c0 .196-.172.362-.387.362h-7.114c.182 1.695 1.502 3.246 3.37 3.246 1.276 0 2.22-.465 2.929-1.447a.387.387 0 01.31-.176c.205 0 .355.145.355.341a.312.312 0 01-.054.176c-.719 1.2-2.146 1.789-3.54 1.789-2.394 0-4.11-2.068-4.11-4.27 0-2.213 1.706-4.27 4.11-4.27 2.381 0 4.109 2.046 4.13 4.249zm-.773-.32c-.15-1.696-1.502-3.247-3.37-3.247-1.856 0-3.186 1.55-3.369 3.246h6.739zm9.507-3.444c0 .217-.13.341-.333.372-2.092.3-3.037 1.944-3.037 3.857v3.278c0 .176-.14.341-.322.362-.225.02-.397-.135-.397-.341v-7.476c0-.176.14-.341.322-.362.226-.02.397.134.397.341v1.52c.59-.961 1.76-1.871 2.983-1.871.183 0 .387.124.387.32zm11.706 3.764c0 .196-.172.362-.386.362h-7.114c.182 1.695 1.502 3.246 3.369 3.246 1.277 0 2.221-.465 2.93-1.447a.387.387 0 01.31-.176c.204 0 .355.145.355.341a.312.312 0 01-.054.176c-.72 1.2-2.146 1.789-3.541 1.789-2.393 0-4.11-2.068-4.11-4.27 0-2.213 1.706-4.27 4.11-4.27 2.393 0 4.12 2.046 4.131 4.249zm-.762-.32c-.15-1.696-1.502-3.247-3.37-3.247-1.866 0-3.186 1.55-3.368 3.246h6.738zm12.264-3.361V20.1c0 .196-.182.34-.354.34-.203 0-.354-.144-.354-.34v-1.427c-.59 1.127-1.63 1.944-2.961 1.944-2.114 0-3.284-1.769-3.284-3.64v-4.395a.35.35 0 01.355-.34c.203 0 .354.175.354.34v4.395c0 1.478.869 2.947 2.575 2.947 2.393 0 2.961-2.161 2.961-4.55v-2.802c0-.207.226-.413.483-.32a.393.393 0 01.225.34zm18.016 3.06v4.395c0 .196-.182.341-.354.341-.204 0-.354-.145-.354-.341v-4.395c0-1.478-.869-2.926-2.575-2.926-2.146 0-2.962 2.213-2.962 3.93v3.39c0 .197-.182.342-.354.342-.204 0-.354-.145-.354-.341v-4.395c0-1.478-.869-2.926-2.575-2.926-2.168 0-3.058 1.644-2.983 3.836 0 .052.021.145 0 .176v3.299a.371.371 0 01-.322.361c-.225.021-.397-.134-.397-.34v-7.497c0-.176.14-.341.322-.362.225-.02.397.134.397.341v1.251c.612-1.054 1.706-1.747 2.983-1.747 1.449 0 2.575.89 3.037 2.181.59-1.282 1.738-2.181 3.208-2.181 2.092 0 3.283 1.747 3.283 3.608z"/><path opacity=".6" d="M8.965 19.854l8.977-5.183-8.977-3.98L0 14.67l8.965 5.183z"/><path opacity=".45" d="M8.58 10.633V0L0 14.638l8.58 5.216v-9.22z"/><path opacity=".8" d="M8.581 19.854l9.361-5.216L8.581 0v19.853z"/><path opacity=".45" d="M8.58 21.153L0 16.036l8.58 12.218v-7.101z"/><path opacity=".8" d="M17.942 16.036l-9.361 5.117v7.101l9.361-12.218z"/></g></svg>