<svg width="115" height="24" fill="none" xmlns="http://www.w3.org/2000/svg"><g opacity=".3" clip-path="url(#clip0_69:1326)"><path d="M23.65 14.904c-1.603 6.428-8.118 10.34-14.551 8.738-6.43-1.603-10.345-8.114-8.74-14.543C1.962 2.67 8.476-1.243 14.907.36c6.433 1.603 10.347 8.115 8.743 14.544z" fill="#fff"/><path d="M17.297 10.292c.24-1.597-.977-2.455-2.64-3.028l.54-2.163-1.318-.328-.525 2.106a55.292 55.292 0 00-1.056-.248l.53-2.12-1.317-.328-.54 2.162c-.287-.065-.569-.13-.842-.197l.002-.007-1.817-.453-.35 1.406s.977.224.957.238c.533.133.63.486.613.765l-.614 2.464c.037.01.084.023.137.044l-.14-.034-.861 3.452c-.065.162-.23.405-.604.312.013.02-.957-.239-.957-.239l-.654 1.508 1.714.427c.32.08.632.163.94.242l-.546 2.188 1.316.328.54-2.165c.36.098.708.188 1.05.273l-.538 2.154 1.317.328.545-2.184c2.246.425 3.936.254 4.647-1.777.573-1.635-.029-2.578-1.21-3.193.86-.198 1.508-.764 1.681-1.933zm-3.01 4.218c-.407 1.635-3.161.752-4.054.53l.723-2.898c.893.222 3.757.663 3.331 2.368zm.408-4.242c-.372 1.488-2.664.732-3.408.547l.656-2.629c.744.185 3.139.531 2.752 2.082z" fill="#131925"/><path d="M35.183 7.262c.974 0 1.815.175 2.522.517.71.346 1.296.811 1.766 1.397a5.883 5.883 0 011.032 2.066c.221.79.333 1.64.333 2.55 0 1.399-.257 2.72-.774 3.964a10.28 10.28 0 01-2.112 3.251 9.936 9.936 0 01-3.161 2.185c-1.213.537-2.532.805-3.948.805-.183 0-.505-.005-.96-.014a14.05 14.05 0 01-1.563-.136 18.357 18.357 0 01-1.87-.366 9.377 9.377 0 01-1.869-.668L29.837.735l4.708-.73-1.882 7.835a7.32 7.32 0 011.214-.424c.406-.101.84-.154 1.306-.154zm-3.95 13.002c.71 0 1.378-.175 2.005-.517a5.277 5.277 0 001.628-1.382 6.967 6.967 0 001.078-1.96 6.674 6.674 0 00.396-2.28c0-.97-.163-1.729-.486-2.277-.324-.545-.923-.82-1.794-.82-.285 0-.652.055-1.108.152a2.766 2.766 0 00-1.232.64l-2.004 8.32c.12.02.227.041.319.06.089.02.188.036.286.046.104.011.223.017.366.017h.546zm14.487 3.31h-4.498L45.02 7.6h4.528L45.72 23.574zm2.188-17.92a2.792 2.792 0 01-1.702-.56c-.51-.373-.761-.945-.761-1.717 0-.425.086-.823.257-1.199A3.206 3.206 0 0147.374.552a3.015 3.015 0 011.202-.241 2.79 2.79 0 011.7.56c.505.377.76.95.76 1.717 0 .426-.086.826-.259 1.2a3.162 3.162 0 01-.683.973c-.282.273-.614.49-.987.652a2.964 2.964 0 01-1.2.241zm5.582-2.033l4.711-.73L57.044 7.6h5.045l-.91 3.704h-5.015l-1.336 5.588c-.123.465-.193.9-.213 1.305-.022.406.03.755.151 1.048.121.294.338.521.654.682.313.163.762.245 1.351.245.486 0 .958-.046 1.415-.137.455-.09.915-.216 1.381-.38l.336 3.464a16.04 16.04 0 01-1.976.575c-.71.164-1.55.243-2.522.243-1.398 0-2.48-.208-3.253-.62-.77-.416-1.315-.985-1.641-1.704-.322-.716-.466-1.543-.425-2.473.041-.933.182-1.914.425-2.947l2.98-12.572zm8.4 13.574c0-1.376.224-2.673.669-3.888a9.566 9.566 0 011.916-3.19A8.972 8.972 0 0167.5 7.96c1.181-.525 2.505-.79 3.963-.79.913 0 1.728.087 2.446.26.72.174 1.372.4 1.961.682l-1.55 3.525a14.546 14.546 0 00-1.261-.44c-.436-.134-.967-.199-1.595-.199-1.502 0-2.688.517-3.572 1.548-.88 1.032-1.323 2.42-1.323 4.162 0 1.033.223 1.867.67 2.506.445.639 1.268.956 2.461.956.59 0 1.158-.061 1.702-.181a8.391 8.391 0 001.46-.455l.335 3.613c-.568.22-1.196.42-1.884.594-.69.168-1.51.256-2.462.256-1.257 0-2.32-.184-3.19-.546-.871-.367-1.59-.855-2.157-1.473a5.552 5.552 0 01-1.231-2.173 8.91 8.91 0 01-.382-2.61zm19.98 6.803c-1.073 0-2.005-.164-2.796-.487-.789-.324-1.442-.778-1.959-1.367a5.903 5.903 0 01-1.17-2.08c-.265-.8-.392-1.684-.392-2.654 0-1.217.195-2.434.59-3.647a10.323 10.323 0 011.75-3.279 9.337 9.337 0 012.823-2.387c1.112-.616 2.39-.926 3.827-.926 1.054 0 1.981.164 2.783.488.798.323 1.456.78 1.975 1.366a5.95 5.95 0 011.168 2.081c.264.798.395 1.686.395 2.657 0 1.213-.193 2.43-.576 3.646a10.527 10.527 0 01-1.702 3.28 8.92 8.92 0 01-2.81 2.382c-1.123.617-2.426.927-3.905.927zM84.12 11c-.667 0-1.257.193-1.761.575a4.963 4.963 0 00-1.275 1.459 7.203 7.203 0 00-.778 1.929 8.31 8.31 0 00-.256 1.988c0 1.014.163 1.803.485 2.371.326.565.912.85 1.763.85.669 0 1.255-.192 1.763-.579.504-.383.93-.87 1.275-1.457a7.21 7.21 0 00.778-1.928c.17-.697.256-1.362.256-1.99 0-1.01-.163-1.802-.487-2.369-.325-.565-.913-.85-1.763-.85zm11.644 12.574h-4.501L95.06 7.6h4.53l-3.827 15.974zm2.185-17.92a2.787 2.787 0 01-1.7-.56c-.507-.373-.761-.945-.761-1.717 0-.425.087-.823.259-1.199.171-.375.4-.697.684-.972.283-.272.615-.49.988-.654a2.994 2.994 0 011.198-.241c.629 0 1.197.186 1.703.56.506.377.761.95.761 1.717 0 .426-.09.826-.26 1.2a3.158 3.158 0 01-1.669 1.625 2.973 2.973 0 01-1.203.241zm4.884 2.673c.342-.1.723-.22 1.137-.35a16.752 16.752 0 013.131-.637 19.48 19.48 0 012.171-.108c2.372 0 4.008.69 4.91 2.067.902 1.377 1.058 3.261.473 5.649l-2.069 8.625h-4.527l2.005-8.444c.122-.527.218-1.036.289-1.534.072-.494.068-.929-.016-1.305a1.564 1.564 0 00-.56-.913c-.297-.232-.745-.349-1.354-.349-.586 0-1.183.063-1.792.185l-2.948 12.36h-4.529l3.679-15.246z" fill="#fff"/></g><defs><clipPath id="clip0_69:1326"><path fill="#fff" d="M0 0h115v24H0z"/></clipPath></defs></svg>