<svg width="80" height="26" fill="none" xmlns="http://www.w3.org/2000/svg"><g opacity=".3"><path d="M11.42 24.096c5.885 0 10.655-4.859 10.655-10.853S17.305 2.389 11.42 2.389.765 7.25.765 13.243c0 5.994 4.77 10.853 10.655 10.853z" fill="#fff"/><path d="M12.556 14.245v-.002c-.074.005-.454.028-1.3.028-.677 0-1.152-.02-1.32-.028v.002c-2.602-.117-4.542-.578-4.542-1.131 0-.552 1.942-1.014 4.543-1.131v1.803c.17.012.657.042 1.33.042.81 0 1.213-.035 1.289-.042v-1.801c2.597.118 4.533.58 4.533 1.13 0 .552-1.938 1.013-4.533 1.131v-.002zm0-2.447v-1.612h3.623V7.727H6.315v2.459h3.623v1.612c-2.944.138-5.158.731-5.158 1.443 0 .712 2.215 1.305 5.158 1.445v5.169h2.62v-5.169c2.94-.138 5.149-.731 5.149-1.443 0-.71-2.21-1.305-5.15-1.443" fill="#131925"/><path d="M31.126 8.399v2.607h2.487v1.956H31.11v3.966c0 .876.474 1.304 1.17 1.304.347 0 .75-.112 1.079-.28l.622 1.938c-.64.26-1.17.371-1.847.39-1.956.075-3.236-1.06-3.236-3.352v-3.966h-1.682v-1.956h1.682V8.64l2.229-.242zm42.883 2.485l.164 1.06c.696-1.135 1.628-1.303 2.543-1.303.931 0 1.827.372 2.32.874l-1.005 1.974c-.457-.39-.877-.597-1.608-.597-1.17 0-2.25.634-2.25 2.328v4.842h-2.23V10.88l2.066.004zm-5.466 3.52c-.146-1.193-1.06-1.79-2.34-1.79-1.207 0-2.195.597-2.524 1.79h4.864zm-4.9 1.88c.146 1.136 1.115 1.957 2.688 1.957.822 0 1.901-.318 2.414-.857l1.425 1.434c-.95 1.005-2.505 1.49-3.877 1.49-3.107 0-4.956-1.956-4.956-4.898 0-2.793 1.866-4.806 4.792-4.806 3.016 0 4.9 1.9 4.553 5.68h-7.039zm-9.836-9.257v5.103c.805-1.061 1.792-1.379 2.816-1.379 2.56 0 3.693 1.77 3.693 4.47v4.843h-2.23v-4.823c0-1.677-.86-2.384-2.049-2.384-1.317 0-2.23 1.136-2.23 2.515v4.694h-2.23V7.029l2.23-.002zm-5.924 1.267v2.607h2.487v1.956h-2.504v3.967c0 .876.476 1.303 1.17 1.303.348 0 .75-.112 1.08-.28l.62 1.938c-.638.26-1.17.372-1.846.39-1.956.076-3.236-1.062-3.236-3.351v-3.967h-1.682v-1.956h1.682V8.537l2.229-.243zm-6.162 6.11c-.146-1.193-1.06-1.79-2.34-1.79-1.206 0-2.194.597-2.523 1.79h4.863zm-4.9 1.88c.146 1.136 1.116 1.957 2.689 1.957.822 0 1.901-.318 2.413-.857l1.425 1.434c-.95 1.005-2.504 1.49-3.876 1.49-3.11 0-4.956-1.956-4.956-4.898 0-2.793 1.865-4.806 4.79-4.806 3.016 0 4.899 1.9 4.553 5.68h-7.037z" fill="#fff"/></g></svg>