<svg width="59" height="45" fill="none" xmlns="http://www.w3.org/2000/svg"><g opacity=".3" clip-path="url(#clip0_69:1320)"><path d="M10.693 44.901v-2.986c0-1.143-.708-1.89-1.925-1.89-.608 0-1.27.197-1.724.846-.354-.545-.862-.847-1.624-.847-.507 0-1.015.151-1.417.696v-.597H2.94V44.9h1.063v-2.638c0-.847.455-1.247 1.164-1.247.708 0 1.062.446 1.062 1.247V44.9h1.063v-2.638c0-.847.508-1.247 1.163-1.247.709 0 1.063.446 1.063 1.247V44.9h1.175zm15.766-4.778h-1.724v-1.444h-1.063v1.444h-.963v.945h.963v2.192c0 1.096.455 1.74 1.671 1.74.455 0 .962-.151 1.317-.348l-.307-.899c-.307.197-.662.25-.916.25-.507 0-.708-.302-.708-.795v-2.14h1.724v-.945h.006zm9.022-.104c-.608 0-1.015.301-1.27.695v-.597H33.15v4.778h1.063v-2.69c0-.795.354-1.247 1.015-1.247.201 0 .455.052.662.099l.307-.998c-.213-.04-.514-.04-.715-.04zm-13.634.498c-.507-.348-1.216-.498-1.978-.498-1.216 0-2.025.597-2.025 1.542 0 .794.608 1.247 1.671 1.392l.508.052c.555.098.862.25.862.499 0 .348-.408.597-1.116.597-.709 0-1.27-.25-1.624-.499l-.508.795c.555.4 1.317.597 2.079.597 1.417 0 2.232-.65 2.232-1.542 0-.847-.662-1.294-1.671-1.444l-.508-.053c-.455-.052-.81-.15-.81-.446 0-.348.355-.545.916-.545.608 0 1.217.25 1.524.4l.448-.847zm28.278-.498c-.608 0-1.016.301-1.27.695v-.597h-1.062v4.778h1.063v-2.69c0-.795.354-1.247 1.015-1.247.2 0 .455.052.661.099l.308-.986c-.207-.052-.508-.052-.715-.052zm-13.58 2.493c0 1.444 1.015 2.488 2.585 2.488.71 0 1.217-.151 1.725-.545l-.508-.847c-.408.302-.81.447-1.27.447-.862 0-1.47-.598-1.47-1.543 0-.899.608-1.496 1.47-1.543.455 0 .862.151 1.27.447l.508-.847c-.508-.4-1.016-.545-1.724-.545-1.571-.005-2.587 1.044-2.587 2.488zm9.83 0v-2.39h-1.062v.598c-.355-.446-.862-.696-1.524-.696-1.37 0-2.432 1.044-2.432 2.488S42.419 45 43.789 45c.709 0 1.217-.25 1.524-.696v.597h1.063v-2.389zm-3.902 0c0-.847.555-1.543 1.47-1.543.862 0 1.47.65 1.47 1.543 0 .847-.608 1.542-1.47 1.542-.91-.052-1.47-.701-1.47-1.542zm-12.72-2.493c-1.416 0-2.432.997-2.432 2.487 0 1.496 1.016 2.488 2.486 2.488.709 0 1.417-.197 1.978-.65l-.508-.748c-.407.302-.915.5-1.417.5-.661 0-1.317-.302-1.47-1.143h3.596v-.4c.047-1.537-.868-2.534-2.232-2.534zm0 .898c.662 0 1.117.4 1.217 1.143h-2.533c.1-.644.555-1.143 1.317-1.143zm26.407 1.595v-4.28h-1.063v2.488c-.354-.446-.862-.696-1.524-.696-1.37 0-2.432 1.044-2.432 2.488S52.204 45 53.573 45c.709 0 1.217-.25 1.524-.696v.597h1.063v-2.389zm-3.903 0c0-.847.555-1.543 1.47-1.543.862 0 1.47.65 1.47 1.543 0 .847-.608 1.542-1.47 1.542-.915-.052-1.47-.701-1.47-1.542zm-35.582 0v-2.39h-1.063v.598c-.354-.446-.862-.696-1.524-.696-1.37 0-2.432 1.044-2.432 2.488S12.719 45 14.088 45c.71 0 1.217-.25 1.524-.696v.597h1.063v-2.389zm-3.95 0c0-.847.555-1.543 1.47-1.543.862 0 1.47.65 1.47 1.543 0 .847-.608 1.542-1.47 1.542-.915-.052-1.47-.701-1.47-1.542z" fill="#fff"/><path d="M37.46 3.833H21.492v28.171H37.46V3.833z" fill="#131925"/><path d="M22.556 17.919c0-5.724 2.74-10.804 6.944-14.086A18.358 18.358 0 0018.246 0C8.16 0 0 8.014 0 17.919c0 9.904 8.16 17.919 18.246 17.919 4.257 0 8.16-1.444 11.254-3.834a17.769 17.769 0 01-6.944-14.085zm36.444 0c0 9.904-8.16 17.919-18.246 17.919-4.257 0-8.16-1.444-11.254-3.834 4.257-3.287 6.944-8.362 6.944-14.085 0-5.724-2.74-10.804-6.944-14.086A18.328 18.328 0 0140.748 0C50.84 0 59 8.066 59 17.919z" fill="#fff"/></g><defs><clipPath id="clip0_69:1320"><path fill="#fff" d="M0 0h59v45H0z"/></clipPath></defs></svg>