<svg width="62" height="62" fill="none" xmlns="http://www.w3.org/2000/svg"><g opacity=".3" fill="#fff"><path d="M24.825 21.774l-3.151 18.49h5.04l3.153-18.49h-5.042zm-7.376.021l-4.936 12.61-.526-1.904c-.973-2.294-3.737-5.589-6.981-7.665l4.513 15.42 5.332-.01 7.937-18.455-5.34.004z"/><path d="M10.074 23.118c-.293-1.126-1.142-1.462-2.196-1.502H.065L0 21.984c6.08 1.475 10.104 5.029 11.773 9.302l-1.7-8.168zM40.08 25.32a9.302 9.302 0 013.773.707l.455.214.681-4.008c-.998-.375-2.562-.777-4.514-.777-4.98 0-8.49 2.509-8.517 6.103-.032 2.656 2.5 4.138 4.413 5.024 1.964.907 2.622 1.484 2.613 2.294-.015 1.238-1.565 1.805-3.013 1.805-2.018 0-3.09-.278-4.745-.968l-.65-.295-.709 4.138c1.18.517 3.356.962 5.615.985 5.297 0 8.74-2.478 8.776-6.318.022-2.101-1.322-3.705-4.234-5.02-1.763-.858-2.841-1.429-2.831-2.295 0-.768.915-1.59 2.888-1.59zm17.842-3.525h-3.894c-1.21 0-2.109.33-2.64 1.535l-7.483 16.945h5.292s.864-2.278 1.06-2.777l6.453.008c.15.645.614 2.77.614 2.77H62l-4.077-18.481zm-6.215 11.918c.415-1.062 2.008-5.168 2.008-5.168-.028.05.41-1.07.67-1.765l.34 1.594 1.168 5.339h-4.186z"/></g></svg>