<svg width="127" height="69" viewBox="0 0 127 69" fill="none" xmlns="http://www.w3.org/2000/svg">
<path fill-rule="evenodd" clip-rule="evenodd" d="M108.891 31.6911C116.392 31.6911 122.473 25.6103 122.473 18.1092C122.473 10.6081 116.392 4.5273 108.891 4.5273C101.39 4.5273 95.3095 10.6081 95.3095 18.1092C95.3095 25.6103 101.39 31.6911 108.891 31.6911ZM108.891 36.2184C118.893 36.2184 127.001 28.1106 127.001 18.1092C127.001 8.10776 118.893 0 108.891 0C98.89 0 90.7822 8.10776 90.7822 18.1092C90.7822 28.1106 98.89 36.2184 108.891 36.2184Z" fill="white"/>
<path fill-rule="evenodd" clip-rule="evenodd" d="M62.0904 0L40.9238 37.1591H83.257L62.0904 0ZM62.0904 9.11281L48.696 32.6275H75.4849L62.0904 9.11281Z" fill="white"/>
<path fill-rule="evenodd" clip-rule="evenodd" d="M4.5021 4.49918H21.1599C24.3922 4.49918 27.0126 7.11783 27.0126 10.3481C27.0126 13.5784 24.3922 16.197 21.1599 16.197H4.5021V4.49918ZM0 16.463V0H21.1599C26.8787 0 31.5147 4.63301 31.5147 10.3481C31.5147 13.7052 29.915 16.689 27.4358 18.5796C29.915 20.4703 31.5147 23.454 31.5147 26.8111C31.5147 32.5262 26.8787 37.1593 21.1599 37.1593H0V20.6962V16.463ZM4.5021 20.9622H21.1599C24.3922 20.9622 27.0126 23.5809 27.0126 26.8111C27.0126 30.0414 24.3922 32.6601 21.1599 32.6601H4.5021V20.9622Z" fill="white"/>
<path d="M34.2995 63.797C35.6519 63.797 36.8015 63.4351 37.8609 62.7339L36.824 60.8565C36.1028 61.3089 35.2011 61.6482 34.2319 61.6482C32.2258 61.6482 30.9184 60.2006 30.9184 58.2327C30.9184 56.2649 32.2258 54.8173 34.2319 54.8173C35.2011 54.8173 36.1028 55.1566 36.824 55.609L37.8609 53.7316C36.8015 53.0304 35.6519 52.6685 34.2995 52.6685C30.941 52.6685 28.5742 54.9078 28.5742 58.2327C28.5742 61.5577 30.941 63.797 34.2995 63.797Z" fill="white"/>
<path d="M41.8738 47.6245H39.6649V63.4577H41.8738V58.4589C41.8738 55.8578 43.0234 54.8852 44.6463 54.8852C46.134 54.8852 47.0356 55.6316 47.0356 57.4185V63.4577H49.2446V57.0339C49.2446 53.8673 47.5315 52.6685 45.3225 52.6685C43.7221 52.6685 42.5951 53.3923 41.9189 54.5911H41.8738V47.6245Z" fill="white"/>
<path d="M56.2304 63.797C57.9434 63.797 59.093 63.0505 59.7467 61.9196H59.7918V63.4577H62.0007V53.0078H59.7918V54.5459H59.7467C59.093 53.4149 57.9434 52.6685 56.2304 52.6685C53.4804 52.6685 51.1587 54.7494 51.1587 58.2327C51.1587 61.716 53.4804 63.797 56.2304 63.797ZM56.7037 61.6256C54.7652 61.6256 53.503 60.2232 53.503 58.2327C53.503 56.2423 54.7652 54.8399 56.7037 54.8399C58.6422 54.8399 59.9045 56.2423 59.9045 58.2327C59.9045 60.2232 58.6422 61.6256 56.7037 61.6256Z" fill="white"/>
<path d="M70.3698 52.6685C68.7694 52.6685 67.6424 53.3923 66.9662 54.5911H66.9211V53.0078H64.7121V63.4577H66.9211V58.4589C66.9211 55.8578 68.0707 54.8852 69.6936 54.8852C71.1812 54.8852 72.0829 55.6316 72.0829 57.4185V63.4577H74.2918V57.0339C74.2918 53.8673 72.6013 52.6685 70.3698 52.6685Z" fill="white"/>
<path d="M82.1368 68.3207C84.8191 68.3207 86.9379 67.5517 87.0506 63.4577V53.0078H84.8417V54.5459H84.7966C84.1429 53.4149 82.9934 52.6685 81.2803 52.6685C78.5303 52.6685 76.2087 54.7494 76.2087 58.2327C76.2087 61.716 78.5303 63.797 81.2803 63.797C82.9934 63.797 84.1429 63.0505 84.7966 61.9196H84.8417V63.1636C84.8417 65.4708 84.1204 66.1719 82.1368 66.1719C81.1676 66.1719 79.8602 65.991 78.5529 65.6969L78.1246 67.8457C79.4094 68.0945 80.8971 68.3207 82.1368 68.3207ZM81.7536 61.6256C79.8151 61.6256 78.5529 60.2232 78.5529 58.2327C78.5529 56.2423 79.8151 54.8399 81.7536 54.8399C83.6921 54.8399 84.9544 56.2423 84.9544 58.2327C84.9544 60.2232 83.6921 61.6256 81.7536 61.6256Z" fill="white"/>
<path d="M94.4054 52.6685C91.0694 52.6685 89.0858 55.0887 89.0858 58.2554C89.0858 61.5577 91.2046 63.797 94.5181 63.797C97.0877 63.797 98.4627 62.372 99.229 61.3089L97.6737 59.8387C97.1553 60.5399 96.1861 61.6708 94.473 61.6708C92.6923 61.6708 91.4075 60.4494 91.3173 58.5946H99.3868V58.2327C99.3868 54.8625 97.5836 52.6685 94.4054 52.6685ZM94.2701 54.7042C95.848 54.7042 96.9074 55.5411 96.9975 56.9887H91.43C91.7005 55.4732 92.7825 54.7042 94.2701 54.7042Z" fill="white"/>
</svg>
