<svg width="25" height="25" viewBox="0 0 25 25" fill="none" xmlns="http://www.w3.org/2000/svg">
<path d="M22.4997 12.6502C22.4497 11.4502 21.4497 10.5002 20.2247 10.5252C19.6747 10.5502 19.1747 10.7752 18.7997 11.1252C17.0997 9.95025 15.0747 9.32525 12.9997 9.27525L13.9747 4.60025L17.1997 5.25025C17.2997 6.07525 18.0247 6.67525 18.8497 6.57525C19.6747 6.47525 20.2747 5.75025 20.1747 4.92525C20.0747 4.10025 19.3497 3.50025 18.5247 3.60025C18.0497 3.65025 17.6247 3.92525 17.3997 4.32525L13.7247 3.60025C13.4747 3.55025 13.2247 3.70025 13.1747 3.95025L12.0747 9.17525C9.97468 9.20025 7.94968 9.85025 6.19968 11.0252C5.32468 10.2002 3.92468 10.2252 3.09968 11.1252C2.27468 12.0002 2.29968 13.4003 3.19968 14.2253C3.37468 14.3752 3.57468 14.5252 3.79968 14.6252C3.77468 14.8503 3.77468 15.0752 3.79968 15.2752C3.79968 18.6502 7.72468 21.4002 12.5747 21.4002C17.4247 21.4002 21.3497 18.6752 21.3497 15.2752C21.3747 15.0502 21.3747 14.8252 21.3497 14.6252C22.0497 14.2752 22.5247 13.5002 22.4997 12.6502ZM7.42468 14.1753C7.42468 13.3503 8.09968 12.6753 8.92468 12.6753C9.74968 12.6753 10.4247 13.3503 10.4247 14.1753C10.4247 15.0002 9.74968 15.6753 8.92468 15.6753C8.09968 15.6753 7.42468 15.0002 7.42468 14.1753ZM16.1747 18.3253C15.0997 19.1253 13.7997 19.5503 12.4747 19.4753C11.1497 19.5253 9.82468 19.1253 8.77468 18.3253C8.62468 18.1503 8.64968 17.9002 8.82468 17.7502C8.97468 17.6252 9.17468 17.6252 9.34968 17.7502C10.2497 18.4002 11.3497 18.7503 12.4747 18.7003C13.5997 18.7503 14.6997 18.4502 15.6247 17.7752C15.7997 17.6252 16.0497 17.6252 16.2247 17.7752C16.3747 17.9502 16.3747 18.2002 16.2247 18.3752V18.3253H16.1747ZM15.9247 15.7502C15.0997 15.7502 14.4247 15.0752 14.4247 14.2502C14.4247 13.4253 15.0997 12.7502 15.9247 12.7502C16.7497 12.7502 17.4247 13.4253 17.4247 14.2502C17.4497 15.0752 16.8247 15.7753 15.9747 15.8003C15.9497 15.8003 15.9247 15.8003 15.8997 15.8003L15.9247 15.7502Z" fill="white"/>
</svg>
