<svg width="26" height="25" viewBox="0 0 26 25" fill="none" xmlns="http://www.w3.org/2000/svg">
<g clip-path="url(#clip0_69:1441)">
<path d="M25.8622 18.2498C25.8307 18.1846 25.8013 18.1304 25.7741 18.0871C25.323 17.3059 24.4609 16.347 23.1885 15.2102L23.1616 15.1842L23.1481 15.1714L23.1345 15.1583H23.1209C22.5434 14.629 22.1777 14.2731 22.0245 14.0908C21.7443 13.7437 21.6815 13.3923 21.8347 13.0363C21.9429 12.7673 22.3493 12.1993 23.053 11.3314C23.4232 10.8714 23.7163 10.5028 23.9328 10.225C25.4942 8.22905 26.1712 6.95361 25.9635 6.39818L25.8828 6.26838C25.8286 6.19024 25.6888 6.11875 25.4634 6.05356C25.2375 5.9885 24.9488 5.97774 24.5968 6.0211L20.6982 6.04699C20.635 6.02547 20.5448 6.02748 20.4274 6.05356C20.31 6.07963 20.2513 6.09272 20.2513 6.09272L20.1835 6.12532L20.1296 6.16448C20.0845 6.19037 20.0348 6.23592 19.9806 6.30102C19.9267 6.3659 19.8816 6.44203 19.8456 6.52879C19.4211 7.57879 18.9385 8.55503 18.3969 9.45745C18.063 9.99555 17.7563 10.4619 17.4762 10.8568C17.1965 11.2515 16.9619 11.5423 16.7725 11.7287C16.5829 11.9153 16.4117 12.0648 16.258 12.1778C16.1045 12.2907 15.9873 12.3385 15.9062 12.321C15.8249 12.3035 15.7483 12.2862 15.6758 12.2689C15.5496 12.1907 15.448 12.0845 15.3714 11.95C15.2945 11.8155 15.2427 11.6462 15.2157 11.4423C15.1887 11.2382 15.1728 11.0627 15.1683 10.9151C15.164 10.7677 15.166 10.5592 15.1751 10.2903C15.1845 10.0211 15.1887 9.83904 15.1887 9.74357C15.1887 9.41377 15.1954 9.05584 15.2088 8.66969C15.2225 8.28353 15.2335 7.97757 15.2428 7.75217C15.252 7.52655 15.2563 7.28783 15.2563 7.03617C15.2563 6.78451 15.2403 6.58715 15.2088 6.4439C15.1777 6.30084 15.13 6.16197 15.0671 6.02734C15.0038 5.89285 14.9111 5.78881 14.7896 5.71496C14.6678 5.64119 14.5163 5.58265 14.3361 5.53916C13.8577 5.43507 13.2486 5.37877 12.5084 5.37002C10.8299 5.35269 9.75136 5.45691 9.27305 5.68254C9.08353 5.77787 8.91204 5.90812 8.7587 6.07289C8.59621 6.26387 8.57355 6.36809 8.69085 6.38523C9.23242 6.46324 9.61581 6.64984 9.84145 6.94485L9.92277 7.10118C9.98602 7.21398 10.0492 7.41366 10.1124 7.69997C10.1755 7.98628 10.2162 8.303 10.2341 8.64995C10.2792 9.28352 10.2792 9.82587 10.2341 10.277C10.189 10.7284 10.1463 11.0797 10.1055 11.3314C10.0648 11.5831 10.0039 11.787 9.92277 11.9431C9.84145 12.0993 9.78735 12.1948 9.76023 12.2295C9.73316 12.2641 9.71059 12.2859 9.69267 12.2945C9.57536 12.3377 9.45337 12.3597 9.3271 12.3597C9.20065 12.3597 9.04731 12.2989 8.86685 12.1774C8.68644 12.0558 8.4992 11.8889 8.30513 11.6763C8.11107 11.4636 7.8922 11.1664 7.64845 10.7846C7.40488 10.4028 7.15216 9.95161 6.89043 9.43096L6.67389 9.05338C6.53852 8.81047 6.35361 8.45678 6.11896 7.99262C5.88416 7.52828 5.67663 7.07912 5.49622 6.64523C5.4241 6.46301 5.31576 6.32427 5.17138 6.22881L5.10363 6.18965C5.05858 6.155 4.98628 6.1182 4.88708 6.079C4.78775 6.03983 4.6841 6.01175 4.57572 5.99447L0.866543 6.02037C0.487514 6.02037 0.230339 6.10293 0.0949234 6.26783L0.0407289 6.34584C0.0136553 6.38929 0 6.45868 0 6.55419C0 6.64965 0.0270736 6.76682 0.0812681 6.90556C0.622739 8.12921 1.21158 9.30932 1.84778 10.4461C2.48399 11.5828 3.03684 12.4985 3.506 13.1923C3.97526 13.8866 4.45358 14.5419 4.94095 15.1578C5.42832 15.774 5.75093 16.1688 5.90877 16.3423C6.0668 16.5161 6.19093 16.646 6.28116 16.7328L6.61965 17.0451C6.83624 17.2535 7.15429 17.5029 7.57396 17.7936C7.99372 18.0844 8.45842 18.3707 8.96832 18.6529C9.4783 18.9347 10.0716 19.1647 10.7485 19.3426C11.4254 19.5206 12.0841 19.592 12.725 19.5576H14.2818C14.5975 19.5313 14.8367 19.4359 14.9993 19.2711L15.0531 19.2059C15.0894 19.1541 15.1233 19.0736 15.1546 18.9653C15.1862 18.8569 15.202 18.7374 15.202 18.6074C15.1927 18.2343 15.2223 17.8981 15.2898 17.5988C15.3572 17.2995 15.4342 17.0739 15.5202 16.9219C15.6061 16.7701 15.7031 16.642 15.8111 16.5381C15.9193 16.4341 15.9964 16.371 16.0416 16.3493C16.0866 16.3275 16.1225 16.3126 16.1495 16.3038C16.3661 16.2344 16.621 16.3016 16.9146 16.5057C17.208 16.7096 17.4831 16.9614 17.7405 17.2607C17.9977 17.5602 18.3067 17.8962 18.6677 18.2693C19.0288 18.6425 19.3446 18.9199 19.6152 19.1024L19.8859 19.2586C20.0666 19.3628 20.3013 19.4583 20.5901 19.5451C20.8785 19.6318 21.1311 19.6535 21.348 19.6101L24.8134 19.5582C25.1561 19.5582 25.4228 19.5036 25.612 19.3953C25.8016 19.2868 25.9142 19.1673 25.9505 19.0374C25.9867 18.9073 25.9887 18.7596 25.9574 18.5946C25.9253 18.43 25.8937 18.3148 25.8622 18.2498Z" fill="white"/>
</g>
<defs>
<clipPath id="clip0_69:1441">
<rect width="26" height="25" fill="white"/>
</clipPath>
</defs>
</svg>
