<svg width="347" height="410" viewBox="0 0 347 410" fill="none" xmlns="http://www.w3.org/2000/svg">
<g filter="url(#filter0_i_315:8)">
<path d="M346.569 201.359V52.745C251.525 44.8875 173.297 0 173.297 0C173.297 0 95.0685 44.8875 0.0244059 52.745V201.359C0.0244059 201.359 -6.04621 370.337 173.297 409.6C352.639 370.337 346.569 201.359 346.569 201.359Z" fill="white" fill-opacity="0.05"/>
</g>
<path d="M346.069 201.359V201.368L346.069 201.377L346.132 201.375C346.069 201.378 346.069 201.378 346.069 201.378L346.069 201.384L346.07 201.406L346.073 201.495C346.074 201.532 346.075 201.577 346.076 201.631C346.078 201.694 346.079 201.768 346.081 201.854C346.087 202.172 346.093 202.646 346.093 203.267C346.094 204.508 346.072 206.335 345.98 208.677C345.796 213.36 345.334 220.098 344.22 228.308C341.991 244.729 337.156 267.03 326.729 290.553C305.893 337.562 262.719 389.477 173.297 409.088C83.8742 389.477 40.7006 337.562 19.8641 290.553C9.43763 267.03 4.60206 244.729 2.37356 228.308C1.25941 220.098 0.797194 213.36 0.613454 208.677C0.521586 206.335 0.499341 204.508 0.500015 203.267C0.500352 202.646 0.506419 202.172 0.512377 201.854C0.515356 201.695 0.518307 201.575 0.520502 201.495L0.523134 201.406L0.523854 201.384L0.524034 201.378C0.52407 201.377 0.524084 201.377 0.0244059 201.359L0.524084 201.377L0.524406 201.368V201.359V53.2051C47.9295 49.2245 91.1188 36.0676 122.483 23.892C138.217 17.7841 150.979 11.9216 159.809 7.58525C164.224 5.41705 167.656 3.6303 169.985 2.38505C171.15 1.76242 172.039 1.27516 172.637 0.943266C172.925 0.783899 173.145 0.660354 173.297 0.574846C173.448 0.660354 173.669 0.783899 173.956 0.943266C174.554 1.27516 175.443 1.76242 176.608 2.38505C178.937 3.6303 182.369 5.41705 186.784 7.58525C195.614 11.9216 208.376 17.7841 224.11 23.892C255.474 36.0676 298.664 49.2245 346.069 53.2051V201.359Z" stroke="white" stroke-opacity="0.13"/>
<path fill-rule="evenodd" clip-rule="evenodd" d="M221.231 196.597C229.419 196.597 236.058 189.959 236.058 181.77C236.058 173.581 229.419 166.942 221.231 166.942C213.042 166.942 206.403 173.581 206.403 181.77C206.403 189.959 213.042 196.597 221.231 196.597ZM221.231 201.539C232.149 201.539 241 192.688 241 181.77C241 170.851 232.149 162 221.231 162C210.312 162 201.461 170.851 201.461 181.77C201.461 192.688 210.312 201.539 221.231 201.539Z" fill="white"/>
<path fill-rule="evenodd" clip-rule="evenodd" d="M170.45 162L147.191 202.315H193.708L170.45 162ZM170.45 171.887L155.732 197.398H185.168L170.45 171.887Z" fill="white"/>
<path fill-rule="evenodd" clip-rule="evenodd" d="M107.902 166.899H126.04C129.56 166.899 132.413 169.75 132.413 173.268C132.413 176.785 129.56 179.636 126.04 179.636H107.902V166.899ZM103 179.926V162H126.04C132.267 162 137.315 167.045 137.315 173.268C137.315 176.923 135.573 180.172 132.874 182.231C135.573 184.289 137.315 187.538 137.315 191.194C137.315 197.416 132.267 202.461 126.04 202.461H103V184.535V179.926ZM107.902 184.825H126.04C129.56 184.825 132.413 187.676 132.413 191.194C132.413 194.711 129.56 197.562 126.04 197.562H107.902V184.825Z" fill="white"/>
<path d="M140.28 231.513C141.761 231.513 143.019 231.119 144.179 230.358L143.044 228.318C142.254 228.81 141.267 229.178 140.206 229.178C138.01 229.178 136.578 227.606 136.578 225.468C136.578 223.33 138.01 221.758 140.206 221.758C141.267 221.758 142.254 222.126 143.044 222.618L144.179 220.578C143.019 219.816 141.761 219.423 140.28 219.423C136.603 219.423 134.012 221.856 134.012 225.468C134.012 229.08 136.603 231.513 140.28 231.513Z" fill="white"/>
<path d="M148.573 213.944H146.154V231.144H148.573V225.714C148.573 222.888 149.831 221.831 151.608 221.831C153.237 221.831 154.224 222.642 154.224 224.583V231.144H156.642V224.166C156.642 220.726 154.767 219.423 152.348 219.423C150.596 219.423 149.362 220.21 148.622 221.512H148.573V213.944Z" fill="white"/>
<path d="M164.291 231.513C166.166 231.513 167.425 230.702 168.14 229.473H168.19V231.144H170.608V219.792H168.19V221.463H168.14C167.425 220.234 166.166 219.423 164.291 219.423C161.28 219.423 158.738 221.684 158.738 225.468C158.738 229.252 161.28 231.513 164.291 231.513ZM164.809 229.154C162.687 229.154 161.305 227.63 161.305 225.468C161.305 223.306 162.687 221.782 164.809 221.782C166.931 221.782 168.313 223.306 168.313 225.468C168.313 227.63 166.931 229.154 164.809 229.154Z" fill="white"/>
<path d="M179.771 219.423C178.019 219.423 176.785 220.21 176.045 221.512H175.995V219.792H173.577V231.144H175.995V225.714C175.995 222.888 177.254 221.831 179.031 221.831C180.659 221.831 181.646 222.642 181.646 224.583V231.144H184.065V224.166C184.065 220.726 182.214 219.423 179.771 219.423Z" fill="white"/>
<path d="M192.654 236.427C195.591 236.427 197.91 235.592 198.034 231.144V219.792H195.615V221.463H195.566C194.85 220.234 193.592 219.423 191.716 219.423C188.705 219.423 186.164 221.684 186.164 225.468C186.164 229.252 188.705 231.513 191.716 231.513C193.592 231.513 194.85 230.702 195.566 229.473H195.615V230.825C195.615 233.331 194.826 234.093 192.654 234.093C191.593 234.093 190.161 233.896 188.73 233.577L188.261 235.911C189.668 236.181 191.297 236.427 192.654 236.427ZM192.234 229.154C190.112 229.154 188.73 227.63 188.73 225.468C188.73 223.306 190.112 221.782 192.234 221.782C194.357 221.782 195.739 223.306 195.739 225.468C195.739 227.63 194.357 229.154 192.234 229.154Z" fill="white"/>
<path d="M206.086 219.423C202.434 219.423 200.262 222.053 200.262 225.493C200.262 229.08 202.582 231.513 206.209 231.513C209.023 231.513 210.528 229.965 211.367 228.81L209.664 227.213C209.097 227.974 208.036 229.203 206.16 229.203C204.21 229.203 202.804 227.876 202.705 225.861H211.54V225.468C211.54 221.807 209.566 219.423 206.086 219.423ZM205.938 221.635C207.665 221.635 208.825 222.544 208.924 224.117H202.828C203.125 222.47 204.309 221.635 205.938 221.635Z" fill="white"/>
<defs>
<filter id="filter0_i_315:8" x="0" y="0" width="346.593" height="409.6" filterUnits="userSpaceOnUse" color-interpolation-filters="sRGB">
<feFlood flood-opacity="0" result="BackgroundImageFix"/>
<feBlend mode="normal" in="SourceGraphic" in2="BackgroundImageFix" result="shape"/>
<feColorMatrix in="SourceAlpha" type="matrix" values="0 0 0 0 0 0 0 0 0 0 0 0 0 0 0 0 0 0 127 0" result="hardAlpha"/>
<feOffset/>
<feGaussianBlur stdDeviation="33.5"/>
<feComposite in2="hardAlpha" operator="arithmetic" k2="-1" k3="1"/>
<feColorMatrix type="matrix" values="0 0 0 0 1 0 0 0 0 1 0 0 0 0 1 0 0 0 0.25 0"/>
<feBlend mode="normal" in2="shape" result="effect1_innerShadow_315:8"/>
</filter>
</defs>
</svg>
