<svg width="967" height="176" fill="none" xmlns="http://www.w3.org/2000/svg"><path d="M46.79 29.45v-1H1V7.724h113.751v20.724H68.962v139.594H46.79V29.449zm304.467 74.593h-1v64h-22.173V7.725h54.552c15.928 0 28.264 5.196 36.618 13.756 8.36 8.566 12.819 20.59 12.819 34.403 0 13.696-4.458 25.721-12.82 34.317-8.355 8.59-20.692 13.842-36.617 13.842h-31.379zm-1-21.724v1h29.125c8.539 0 15.723-2.309 20.782-6.96 5.071-4.663 7.877-11.563 7.877-20.475s-2.806-15.812-7.877-20.475c-5.059-4.651-12.243-6.96-20.782-6.96h-29.125v53.87zm127.371 85.724h-23.794V7.725h22.173v122.434h2.006l.296-.453L557.97 7.725h23.794v160.318h-22.173V45.609h-2.007l-.296.453-79.66 121.981zm229.7-152.739v1h1c23.415 0 42.499 6.443 55.719 18.55 13.207 12.094 20.681 29.95 20.681 53.03 0 22.963-7.473 40.879-20.684 53.062-13.222 12.193-32.305 18.75-55.716 18.75h-1V175H685.62v-15.304h-1c-23.411 0-42.495-6.557-55.716-18.75-13.211-12.183-20.684-30.099-20.684-53.062 0-23.08 7.474-40.936 20.681-53.03 13.22-12.107 32.304-18.55 55.719-18.55h1V1h21.708v14.304zm-21.011 23.189v-1h-1.697c-16.424 0-29.492 4.096-38.456 12.532-8.975 8.447-13.679 21.095-13.679 37.86 0 16.646 4.645 29.349 13.587 37.882 8.934 8.525 22.003 12.74 38.548 12.74h1.697V38.493zm20.314 99.014v1h1.697c16.545 0 29.614-4.215 38.548-12.74 8.942-8.533 13.587-21.236 13.587-37.883 0-16.764-4.705-29.412-13.679-37.859-8.965-8.436-22.032-12.532-38.456-12.532h-1.697v100.014zm126.65-66.087v1H872.4c13.989 0 26.519 4.118 35.537 12.125 9.002 7.992 14.598 19.939 14.598 35.803 0 15.745-5.594 27.635-14.596 35.599-9.019 7.979-21.55 12.096-35.539 12.096h-61.292V7.725h22.173V71.42zm0 74.899v1h36.795c9.023 0 16.155-2.609 21.035-7.356 4.882-4.749 7.392-11.523 7.392-19.615 0-8.205-2.508-15.037-7.39-19.816-4.881-4.778-12.014-7.387-21.037-7.387h-36.795v53.174zM206.765 47.008l-.869-1.52-.868 1.52-58.221 101.902-.855 1.496h119.889l-.855-1.496-58.221-101.903zM966 168.042h-22.638V7.725H966v160.318zm-850.385 0l90.281-158.014 90.282 158.014H115.615z" stroke="url(#a)" stroke-width="2"/><linearGradient id="a" x1="-60" y1="-33.5" x2="772.696" y2="619.333" gradientUnits="userSpaceOnUse"><stop stop-color="#8253E9"/><stop offset=".406" stop-color="#CE2ADE"/><stop offset="1" stop-color="#51DCA5"/></linearGradient></svg>