<svg width="91" height="49" fill="none" xmlns="http://www.w3.org/2000/svg"><path fill-rule="evenodd" clip-rule="evenodd" d="M78.024 22.708c5.375 0 9.732-4.357 9.732-9.732 0-5.375-4.357-9.732-9.732-9.732-5.375 0-9.732 4.357-9.732 9.732 0 5.375 4.357 9.732 9.732 9.732zm0 3.244c7.167 0 12.976-5.81 12.976-12.976C91 5.81 85.19 0 78.024 0c-7.166 0-12.976 5.81-12.976 12.976 0 7.166 5.81 12.976 12.976 12.976zM44.49 0L29.323 26.626h30.334L44.49 0zm0 6.53l-9.598 16.849h19.195L44.49 6.529zM3.226 3.224h11.936a4.192 4.192 0 014.193 4.19 4.192 4.192 0 01-4.193 4.192H3.226V3.224zM0 11.796V0h15.162c4.098 0 7.42 3.32 7.42 7.415a7.402 7.402 0 01-2.923 5.898 7.401 7.401 0 012.922 5.898 7.417 7.417 0 01-7.42 7.415H0v-14.83zm3.226 3.224h11.936a4.192 4.192 0 014.193 4.191 4.192 4.192 0 01-4.193 4.191H3.226V15.02z" fill="#fff"/><path d="M24.577 45.713c.97 0 1.793-.26 2.552-.762l-.743-1.345c-.517.324-1.163.567-1.857.567-1.438 0-2.375-1.037-2.375-2.447 0-1.41.937-2.447 2.375-2.447.694 0 1.34.243 1.857.567l.743-1.345a4.466 4.466 0 00-2.552-.762c-2.407 0-4.102 1.605-4.102 3.987 0 2.383 1.695 3.987 4.102 3.987zm5.427-11.588h-1.582V45.47h1.582v-3.582c0-1.864.824-2.56 1.987-2.56 1.066 0 1.712.534 1.712 1.814v4.328h1.583v-4.603c0-2.269-1.228-3.128-2.81-3.128-1.147 0-1.955.519-2.44 1.378h-.032v-4.992zm10.287 11.588c1.228 0 2.051-.535 2.52-1.345h.032v1.102h1.583v-7.488h-1.583v1.102h-.032c-.469-.81-1.292-1.345-2.52-1.345-1.97 0-3.634 1.491-3.634 3.987s1.664 3.987 3.634 3.987zm.34-1.556c-1.39 0-2.294-1.005-2.294-2.431 0-1.426.904-2.431 2.293-2.431 1.39 0 2.294 1.005 2.294 2.431 0 1.426-.905 2.431-2.294 2.431zm9.792-6.418c-1.147 0-1.955.519-2.44 1.378h-.031v-1.135h-1.583v7.488h1.583v-3.582c0-1.864.823-2.56 1.986-2.56 1.066 0 1.712.534 1.712 1.814v4.328h1.583v-4.603c0-2.269-1.211-3.128-2.81-3.128zm8.431 11.215c1.922 0 3.44-.55 3.521-3.484v-7.488h-1.583v1.102h-.032c-.468-.81-1.292-1.345-2.52-1.345-1.97 0-3.634 1.491-3.634 3.987s1.664 3.987 3.634 3.987c1.228 0 2.052-.535 2.52-1.345h.032v.891c0 1.653-.517 2.156-1.938 2.156-.694 0-1.631-.13-2.568-.34l-.307 1.54c.92.177 1.987.34 2.875.34zm-.274-4.797c-1.39 0-2.294-1.005-2.294-2.431 0-1.426.905-2.431 2.294-2.431s2.293 1.005 2.293 2.431c0 1.426-.904 2.431-2.293 2.431zm9.065-6.418c-2.39 0-3.812 1.734-3.812 4.003 0 2.367 1.519 3.971 3.893 3.971 1.841 0 2.826-1.021 3.375-1.783l-1.114-1.053c-.371.502-1.066 1.313-2.293 1.313-1.276 0-2.197-.876-2.262-2.205h5.782v-.259c0-2.415-1.292-3.987-3.569-3.987zm-.097 1.459c1.13 0 1.89.6 1.954 1.637h-3.989c.194-1.086.97-1.637 2.035-1.637z" fill="#fff"/></svg>