<svg width="22" height="22" fill="none" xmlns="http://www.w3.org/2000/svg"><g clip-path="url(#clip0_285:1107)"><path d="M21.758 4.972A5.5 5.5 0 0016.5 1.1h-11A5.5 5.5 0 00.242 4.972 5.718 5.718 0 000 6.6v8.8a5.502 5.502 0 005.5 5.5h11a5.502 5.502 0 005.5-5.5V6.6a5.716 5.716 0 00-.242-1.628zM5.5 3.3h11a3.31 3.31 0 013.256 2.772L11 10.846 2.244 6.072A3.31 3.31 0 015.5 3.3zm14.3 12.1a3.31 3.31 0 01-3.3 3.3h-11a3.31 3.31 0 01-3.3-3.3V8.558l8.272 4.51c.33.176.726.176 1.056 0l8.272-4.51V15.4z" fill="#fff"/></g><defs><clipPath id="clip0_285:1107"><path fill="#fff" d="M0 0h22v22H0z"/></clipPath></defs></svg>