<svg width="347" height="410" fill="none" xmlns="http://www.w3.org/2000/svg"><g filter="url(#filter0_i_315:8)"><path d="M346.569 201.359V52.745C251.525 44.888 173.297 0 173.297 0S95.069 44.888.024 52.745v148.614S-6.046 370.337 173.297 409.6c179.342-39.263 173.272-208.241 173.272-208.241z" fill="#fff" fill-opacity=".05"/></g><path d="M346.069 201.359v.018l.063-.002-.063.003v.006l.001.022.003.089.003.136.005.223c.006.318.012.792.012 1.413.001 1.241-.021 3.068-.113 5.41-.184 4.683-.646 11.421-1.76 19.631-2.229 16.421-7.064 38.722-17.491 62.245-20.836 47.009-64.01 98.924-153.432 118.535-89.423-19.611-132.596-71.526-153.433-118.535-10.426-23.523-15.262-45.824-17.49-62.245-1.115-8.21-1.577-14.948-1.76-19.631a137.287 137.287 0 01-.114-5.41 78.387 78.387 0 01.02-1.772l.003-.089v-.022l.001-.006-.5-.019.5.018V53.205c47.405-3.98 90.595-17.137 121.959-29.313 15.734-6.108 28.496-11.97 37.326-16.307a334.128 334.128 0 0010.176-5.2 192.398 192.398 0 003.312-1.81 192.398 192.398 0 003.311 1.81 334.128 334.128 0 0010.176 5.2c8.83 4.337 21.592 10.2 37.326 16.307 31.364 12.176 74.554 25.332 121.959 29.313V201.36z" stroke="#fff" stroke-opacity=".13"/><path fill-rule="evenodd" clip-rule="evenodd" d="M221.231 196.597c8.188 0 14.827-6.638 14.827-14.827s-6.639-14.828-14.827-14.828c-8.189 0-14.828 6.639-14.828 14.828s6.639 14.827 14.828 14.827zm0 4.942c10.918 0 19.769-8.851 19.769-19.769 0-10.919-8.851-19.77-19.769-19.77-10.919 0-19.77 8.851-19.77 19.77 0 10.918 8.851 19.769 19.77 19.769zM170.45 162l-23.259 40.315h46.517L170.45 162zm0 9.887l-14.718 25.511h29.436l-14.718-25.511zm-62.548-4.988h18.138a6.37 6.37 0 016.373 6.369 6.37 6.37 0 01-6.373 6.368h-18.138v-12.737zM103 179.926V162h23.04c6.227 0 11.275 5.045 11.275 11.268a11.25 11.25 0 01-4.441 8.963 11.247 11.247 0 014.441 8.963c0 6.222-5.048 11.267-11.275 11.267H103v-22.535zm4.902 4.899h18.138a6.37 6.37 0 016.373 6.369 6.37 6.37 0 01-6.373 6.368h-18.138v-12.737z" fill="#fff"/><path d="M140.28 231.513c1.481 0 2.739-.394 3.899-1.155l-1.135-2.04c-.79.492-1.777.86-2.838.86-2.196 0-3.628-1.572-3.628-3.71s1.432-3.71 3.628-3.71c1.061 0 2.048.368 2.838.86l1.135-2.04c-1.16-.762-2.418-1.155-3.899-1.155-3.677 0-6.268 2.433-6.268 6.045s2.591 6.045 6.268 6.045zm8.293-17.569h-2.419v17.2h2.419v-5.43c0-2.826 1.258-3.883 3.035-3.883 1.629 0 2.616.811 2.616 2.752v6.561h2.418v-6.978c0-3.44-1.875-4.743-4.294-4.743-1.752 0-2.986.787-3.726 2.089h-.049v-7.568zm15.718 17.569c1.875 0 3.134-.811 3.849-2.04h.05v1.671h2.418v-11.352h-2.418v1.671h-.05c-.715-1.229-1.974-2.04-3.849-2.04-3.011 0-5.553 2.261-5.553 6.045s2.542 6.045 5.553 6.045zm.518-2.359c-2.122 0-3.504-1.524-3.504-3.686s1.382-3.686 3.504-3.686 3.504 1.524 3.504 3.686-1.382 3.686-3.504 3.686zm14.962-9.731c-1.752 0-2.986.787-3.726 2.089h-.05v-1.72h-2.418v11.352h2.418v-5.43c0-2.826 1.259-3.883 3.036-3.883 1.628 0 2.615.811 2.615 2.752v6.561h2.419v-6.978c0-3.44-1.851-4.743-4.294-4.743zm12.883 17.004c2.937 0 5.256-.835 5.38-5.283v-11.352h-2.419v1.671h-.049c-.716-1.229-1.974-2.04-3.85-2.04-3.011 0-5.552 2.261-5.552 6.045s2.541 6.045 5.552 6.045c1.876 0 3.134-.811 3.85-2.04h.049v1.352c0 2.506-.789 3.268-2.961 3.268-1.061 0-2.493-.197-3.924-.516l-.469 2.334c1.407.27 3.036.516 4.393.516zm-.42-7.273c-2.122 0-3.504-1.524-3.504-3.686s1.382-3.686 3.504-3.686c2.123 0 3.505 1.524 3.505 3.686s-1.382 3.686-3.505 3.686zm13.852-9.731c-3.652 0-5.824 2.63-5.824 6.07 0 3.587 2.32 6.02 5.947 6.02 2.814 0 4.319-1.548 5.158-2.703l-1.703-1.597c-.567.761-1.628 1.99-3.504 1.99-1.95 0-3.356-1.327-3.455-3.342h8.835v-.393c0-3.661-1.974-6.045-5.454-6.045zm-.148 2.212c1.727 0 2.887.909 2.986 2.482h-6.096c.297-1.647 1.481-2.482 3.11-2.482z" fill="#fff"/><defs><filter id="filter0_i_315:8" x="0" y="0" width="346.593" height="409.6" filterUnits="userSpaceOnUse" color-interpolation-filters="sRGB"><feFlood flood-opacity="0" result="BackgroundImageFix"/><feBlend in="SourceGraphic" in2="BackgroundImageFix" result="shape"/><feColorMatrix in="SourceAlpha" values="0 0 0 0 0 0 0 0 0 0 0 0 0 0 0 0 0 0 127 0" result="hardAlpha"/><feOffset/><feGaussianBlur stdDeviation="33.5"/><feComposite in2="hardAlpha" operator="arithmetic" k2="-1" k3="1"/><feColorMatrix values="0 0 0 0 1 0 0 0 0 1 0 0 0 0 1 0 0 0 0.25 0"/><feBlend in2="shape" result="effect1_innerShadow_315:8"/></filter></defs></svg>