<svg width="967" height="176" viewBox="0 0 967 176" fill="none" xmlns="http://www.w3.org/2000/svg">
<path d="M46.7892 29.4493V28.4493H45.7892H1V7.72463H114.751V28.4493H69.9622H68.9622V29.4493V168.043H46.7892V29.4493ZM351.257 104.043H350.257V105.043V168.043H328.084V7.72463H382.636C398.564 7.72463 410.9 12.9207 419.254 21.481C427.614 30.0468 432.073 42.0708 432.073 55.8841C432.073 69.5798 427.615 81.6051 419.253 90.2013C410.898 98.7915 398.561 104.043 382.636 104.043H351.257ZM350.257 82.3188V83.3188H351.257H379.382C387.921 83.3188 395.105 81.0105 400.164 76.3593C405.235 71.6962 408.041 64.7962 408.041 55.8841C408.041 46.9719 405.235 40.0719 400.164 35.4088C395.105 30.7576 387.921 28.4493 379.382 28.4493H351.257H350.257V29.4493V82.3188ZM477.628 168.043H453.834V7.72463H476.007V129.159V130.159H477.007H477.472H478.013L478.309 129.706L557.97 7.72463H581.764V168.043H559.591V46.6087V45.6087H558.591H558.126H557.584L557.288 46.0619L477.628 168.043ZM707.328 15.3043V16.3043H708.328C731.743 16.3043 750.827 22.7472 764.047 34.8534C777.254 46.9483 784.728 64.8046 784.728 87.8841C784.728 110.847 777.255 128.763 764.044 140.946C750.822 153.139 731.739 159.696 708.328 159.696H707.328V160.696V175H685.62V160.696V159.696H684.62C661.209 159.696 642.125 153.139 628.904 140.946C615.693 128.763 608.22 110.847 608.22 87.8841C608.22 64.8046 615.694 46.9483 628.901 34.8534C642.121 22.7472 661.205 16.3043 684.62 16.3043H685.62V15.3043V1H707.328V15.3043ZM686.317 38.4928V37.4928H685.317H684.62C668.196 37.4928 655.128 41.5891 646.164 50.0254C637.189 58.4717 632.485 71.1196 632.485 87.8841C632.485 104.531 637.13 117.234 646.072 125.767C655.006 134.292 668.075 138.507 684.62 138.507H685.317H686.317V137.507V38.4928ZM706.631 137.507V138.507H707.631H708.328C724.873 138.507 737.942 134.292 746.876 125.767C755.818 117.234 760.463 104.531 760.463 87.8841C760.463 71.1196 755.758 58.4717 746.784 50.0254C737.819 41.5891 724.752 37.4928 708.328 37.4928H707.631H706.631V38.4928V137.507ZM833.281 71.4203V72.4203H834.281H872.4C886.389 72.4203 898.919 76.538 907.937 84.5449C916.939 92.5369 922.535 104.484 922.535 120.348C922.535 136.093 916.941 147.983 907.939 155.947C898.92 163.926 886.389 168.043 872.4 168.043H811.108V7.72463H833.281V71.4203ZM833.281 146.319V147.319H834.281H870.076C879.099 147.319 886.231 144.71 891.111 139.963C895.993 135.214 898.503 128.44 898.503 120.348C898.503 112.143 895.995 105.311 891.113 100.532C886.232 95.7541 879.099 93.1449 870.076 93.1449H834.281H833.281V94.1449V146.319ZM206.765 47.0075L205.896 45.4879L205.028 47.0075L146.807 148.91L145.952 150.406H147.675H264.118H265.841L264.986 148.91L206.765 47.0075ZM966 168.043H943.362V7.72463H966V168.043ZM115.615 168.043L205.896 10.0287L296.178 168.043H115.615Z" stroke="url(#paint0_linear_61:135)" stroke-width="2"/>
<linearGradient id="paint0_linear_61:135" x1="-60" y1="-33.5" x2="772.696" y2="619.333" gradientUnits="userSpaceOnUse">
<stop stop-color="#8253E9"/>
<stop offset="0.40625" stop-color="#CE2ADE"/>
<stop offset="1" stop-color="#51DCA5"/>
</linearGradient>
</svg>
