<svg width="127" height="69" fill="none" xmlns="http://www.w3.org/2000/svg"><path fill-rule="evenodd" clip-rule="evenodd" d="M108.891 31.691c7.501 0 13.582-6.08 13.582-13.582 0-7.5-6.081-13.582-13.582-13.582S95.309 10.608 95.309 18.11s6.081 13.582 13.582 13.582zm0 4.527c10.002 0 18.11-8.107 18.11-18.109C127.001 8.108 118.893 0 108.891 0 98.89 0 90.782 8.108 90.782 18.11c0 10 8.108 18.108 18.109 18.108zM62.09 0L40.924 37.16h42.333L62.09 0zm0 9.113L48.696 32.627h26.789L62.09 9.113zM4.502 4.5H21.16a5.85 5.85 0 015.853 5.848 5.85 5.85 0 01-5.853 5.849H4.502V4.499zM0 16.462V0h21.16c5.719 0 10.355 4.633 10.355 10.348 0 3.357-1.6 6.341-4.08 8.232a10.33 10.33 0 014.08 8.231c0 5.715-4.636 10.348-10.355 10.348H0V16.463zm4.502 4.5H21.16a5.85 5.85 0 015.853 5.848 5.85 5.85 0 01-5.853 5.85H4.502V20.961z" fill="#fff"/><path d="M34.3 63.797c1.352 0 2.502-.362 3.56-1.063l-1.036-1.878c-.721.453-1.623.792-2.592.792-2.006 0-3.314-1.447-3.314-3.415s1.308-3.416 3.314-3.416c.97 0 1.87.34 2.592.792l1.037-1.877c-1.06-.702-2.21-1.063-3.561-1.063-3.359 0-5.726 2.239-5.726 5.564s2.367 5.564 5.726 5.564zm7.574-16.173h-2.21v15.834h2.21v-5c0-2.6 1.15-3.573 2.772-3.573 1.488 0 2.39.747 2.39 2.534v6.039h2.209v-6.424c0-3.167-1.713-4.365-3.922-4.365-1.6 0-2.728.723-3.404 1.922h-.045v-6.967zM56.23 63.797c1.713 0 2.863-.746 3.517-1.877h.045v1.538H62v-10.45h-2.21v1.538h-.044c-.654-1.131-1.804-1.877-3.517-1.877-2.75 0-5.071 2.08-5.071 5.564 0 3.483 2.321 5.564 5.071 5.564zm.474-2.171c-1.939 0-3.201-1.403-3.201-3.393 0-1.99 1.262-3.393 3.2-3.393 1.94 0 3.201 1.402 3.201 3.393 0 1.99-1.262 3.393-3.2 3.393zm13.666-8.957c-1.6 0-2.728.723-3.404 1.922h-.045v-1.583h-2.209v10.45h2.21v-5c0-2.6 1.149-3.573 2.772-3.573 1.487 0 2.389.747 2.389 2.534v6.039h2.209v-6.424c0-3.167-1.69-4.365-3.922-4.365zM82.137 68.32c2.682 0 4.8-.768 4.914-4.862v-10.45h-2.21v1.538h-.044c-.654-1.131-1.804-1.877-3.517-1.877-2.75 0-5.071 2.08-5.071 5.564 0 3.483 2.321 5.564 5.071 5.564 1.713 0 2.863-.746 3.517-1.877h.045v1.244c0 2.307-.722 3.008-2.705 3.008-.97 0-2.277-.181-3.584-.475l-.428 2.149c1.284.248 2.772.475 4.012.475zm-.383-6.694c-1.939 0-3.201-1.403-3.201-3.393 0-1.99 1.262-3.393 3.2-3.393 1.94 0 3.201 1.402 3.201 3.393 0 1.99-1.262 3.393-3.2 3.393zm12.651-8.957c-3.336 0-5.32 2.42-5.32 5.586 0 3.303 2.12 5.542 5.433 5.542 2.57 0 3.945-1.425 4.711-2.488l-1.555-1.47c-.519.7-1.488 1.832-3.201 1.832-1.78 0-3.066-1.222-3.156-3.076h8.07v-.362c0-3.37-1.803-5.564-4.982-5.564zm-.135 2.035c1.578 0 2.637.837 2.728 2.285H91.43c.27-1.516 1.352-2.285 2.84-2.285z" fill="#fff"/></svg>