<svg width="25" height="25" fill="none" xmlns="http://www.w3.org/2000/svg"><path d="M22.5 12.65a2.221 2.221 0 00-2.275-2.125c-.55.025-1.05.25-1.425.6-1.7-1.175-3.725-1.8-5.8-1.85l.975-4.675 3.225.65c.1.825.825 1.425 1.65 1.325.825-.1 1.425-.825 1.325-1.65-.1-.825-.825-1.425-1.65-1.325-.475.05-.9.325-1.125.725L13.725 3.6a.46.46 0 00-.55.35l-1.1 5.225c-2.1.025-4.125.675-5.875 1.85-.875-.825-2.275-.8-3.1.1-.825.875-.8 2.275.1 3.1.175.15.375.3.6.4-.025.225-.025.45 0 .65 0 3.375 3.925 6.125 8.775 6.125 4.85 0 8.775-2.725 8.775-6.125.025-.225.025-.45 0-.65.7-.35 1.175-1.125 1.15-1.975zM7.425 14.175c0-.825.675-1.5 1.5-1.5s1.5.675 1.5 1.5-.675 1.5-1.5 1.5-1.5-.675-1.5-1.5zm8.75 4.15c-1.075.8-2.375 1.225-3.7 1.15a5.77 5.77 0 01-3.7-1.15.402.402 0 01.05-.575c.15-.125.35-.125.525 0 .9.65 2 1 3.125.95 1.125.05 2.225-.25 3.15-.925a.456.456 0 01.6 0c.15.175.15.425 0 .6v-.05h-.05zm-.25-2.575c-.825 0-1.5-.675-1.5-1.5s.675-1.5 1.5-1.5 1.5.675 1.5 1.5c.025.825-.6 1.525-1.45 1.55H15.9l.025-.05z" fill="#fff"/></svg>