<svg width="26" height="25" fill="none" xmlns="http://www.w3.org/2000/svg"><g clip-path="url(#clip0_69:1441)"><path d="M25.862 18.25a1.705 1.705 0 00-.088-.163c-.451-.781-1.313-1.74-2.585-2.877l-.027-.026-.014-.013-.014-.013h-.013c-.578-.529-.943-.885-1.096-1.067-.28-.347-.343-.699-.19-1.055.108-.269.514-.837 1.218-1.705.37-.46.663-.828.88-1.106 1.561-1.996 2.238-3.271 2.03-3.827l-.08-.13c-.054-.078-.194-.15-.42-.214-.226-.066-.514-.076-.866-.033l-3.899.026a.525.525 0 00-.27.007l-.177.039-.068.032-.053.04a.594.594 0 00-.15.136.884.884 0 00-.134.228 20.91 20.91 0 01-1.45 2.928c-.333.539-.64 1.005-.92 1.4s-.514.685-.703.872c-.19.186-.361.336-.515.449-.153.113-.27.16-.352.143a10.646 10.646 0 01-.23-.052.88.88 0 01-.305-.319 1.387 1.387 0 01-.155-.508 5.35 5.35 0 01-.048-.527c-.004-.147-.002-.356.007-.625.01-.269.014-.451.014-.546 0-.33.006-.688.02-1.074.014-.386.024-.692.034-.918.009-.225.013-.464.013-.716 0-.251-.016-.449-.047-.592a1.972 1.972 0 00-.142-.417.71.71 0 00-.277-.312 1.6 1.6 0 00-.454-.176c-.478-.104-1.087-.16-1.828-.169-1.678-.017-2.757.087-3.235.313a1.79 1.79 0 00-.514.39c-.163.19-.185.295-.068.312.541.078.925.265 1.15.56l.082.156c.063.113.126.313.19.599.063.286.103.603.121.95a9.731 9.731 0 010 1.627 18.13 18.13 0 01-.129 1.054 2.05 2.05 0 01-.182.612 2.564 2.564 0 01-.163.287.23.23 0 01-.067.064 1.05 1.05 0 01-.366.066c-.126 0-.28-.061-.46-.183a3.207 3.207 0 01-.562-.5 6.71 6.71 0 01-.657-.892A15.379 15.379 0 016.89 9.43l-.216-.378c-.135-.243-.32-.596-.555-1.06a20.062 20.062 0 01-.623-1.348.862.862 0 00-.325-.416l-.067-.04a.939.939 0 00-.217-.11 1.49 1.49 0 00-.311-.085l-3.71.026c-.378 0-.636.083-.771.248l-.054.078A.407.407 0 000 6.554c0 .096.027.213.081.352a42.261 42.261 0 001.767 3.54c.636 1.137 1.189 2.053 1.658 2.746.47.695.948 1.35 1.435 1.966.487.616.81 1.01.968 1.184.158.174.282.304.372.39l.339.313c.216.208.534.458.954.749.42.29.884.577 1.394.859.51.282 1.104.512 1.78.69a6.408 6.408 0 001.977.215h1.557c.316-.027.555-.122.717-.287l.054-.065a.843.843 0 00.102-.24c.031-.11.047-.229.047-.359-.01-.373.02-.709.088-1.008.067-.3.144-.525.23-.677a1.67 1.67 0 01.291-.384 1.17 1.17 0 01.23-.189.9.9 0 01.108-.045c.217-.07.472-.002.766.202.293.204.568.455.826.755.257.3.566.635.927 1.008.36.373.677.65.947.833l.27.157c.182.104.416.2.705.286.288.087.541.108.758.065l3.465-.052c.343 0 .61-.054.799-.163.19-.108.302-.228.339-.358a.97.97 0 00.006-.442 1.583 1.583 0 00-.095-.345z" fill="#fff"/></g><defs><clipPath id="clip0_69:1441"><path fill="#fff" d="M0 0h26v25H0z"/></clipPath></defs></svg>